<?xml version="1.0" encoding="UTF-8"?>
<svg id="Warstwa_1" data-name="Warstwa 1" xmlns="http://www.w3.org/2000/svg" viewBox="0 0 1000 1000">
  <defs>
    <style>
      .cls-1 {
        fill: #e8e9f3;
      }

      .cls-2 {
        fill: none;
        stroke: #6ad4ef;
        stroke-miterlimit: 10;
        stroke-width: 12px;
      }
    </style>
  </defs>
  <rect class="cls-2" x="242" y="415.36" width="515.99" height="169.29" rx="32.03" ry="32.03"/>
  <g>
    <path class="cls-1" d="M207.55,534.99c1.87.17,3.87-.2,5.78-.25,33.77-.8,64.98,21.97,74.38,54.46.53,1.83.79,3.85,1.51,5.58.33,2.94,1.07,5.87,1.36,8.81,5.51,55.99-50.84,98.44-103.35,78.29l-29.12,14.57c-3.84,1.21-7.78-1.66-7.79-5.7l5.08-32.17c-35.08-43.98-11.66-110.54,43.35-122.22l8.8-1.36ZM163.94,680.29c6.82-3.07,13.28-7.14,20.14-10.11.74-.32,1.52-.79,2.33-.89,2.33-.31,7.81,2.4,10.46,3.16,49.11,14.12,94-31.91,79.24-80.55-8.07-26.58-33.81-45.5-61.58-45.28-50.93.41-81.42,57.25-53.07,99.91,1.53,2.29,5.76,6.7,6.17,9.02.14.8-.06,1.69-.15,2.49-.75,7.44-2.67,14.83-3.54,22.26Z"/>
    <path class="cls-1" d="M183.06,608.28c9.66-3.09,13.8,11.57,4.51,14.23s-13.43-11.38-4.51-14.23Z"/>
    <path class="cls-1" d="M212.4,603.74c9.66-3.09,13.8,11.57,4.51,14.23s-13.43-11.38-4.51-14.23Z"/>
    <path class="cls-1" d="M241.74,599.19c9.66-3.09,13.8,11.57,4.51,14.23s-13.43-11.38-4.51-14.23Z"/>
  </g>
  <g>
    <path class="cls-1" d="M885.94,327l.58.76c20.69,9.08,31.43,33.24,25.82,55.01-9.51,26.16-14.88,55.47-24.58,81.34-8.08,21.57-32.64,35.07-55.11,29.83-27.87-6.5-56.08-18.47-84.04-25.38-24.31-11.17-34.45-33.8-27.63-59.81,6.79-25.91,16.4-51.2,23.34-77.08,9.58-24.51,33.07-36.37,58.84-30.09,27.49,6.7,55.41,17.78,82.76,25.42ZM885.98,347.94c-3.64-3.66-8.31-6.54-12.9-8.84-21.93-6.32-44.66-15.37-66.78-20.65-23.07-5.51-42.19,5.05-50.23,26.95-6.5,17.71-13.58,41.87-18.19,60.25-5.7,22.73,2.38,41.13,23.73,51.02,38.52,7.02,93.95,46.57,115.22-7.99,5.34-20.43,13.65-40.95,18.55-61.39,3.3-13.76.77-29.09-9.41-39.34Z"/>
    <path class="cls-1" d="M836.47,356.49c30.37,14.63,32.4,58.64,5.14,77.45-26.7,18.42-62.81,4.47-69.25-27.06-7.57-37.03,30.06-66.8,64.11-50.39ZM830.5,370.95c-25.64-13.32-53.72,12.51-41.4,39.15,12.09,26.17,50.94,20.36,56.18-7.97,2.15-11.61-4.45-25.82-14.77-31.18Z"/>
    <path class="cls-1" d="M883.33,358.58c.88,1.03,1.57,1.72,2.04,3.21,3.34,10.72-9.74,19.55-17.6,11.84-.11-.11-1.72-2.34-1.78-2.48-5.55-11.95,9.28-21.94,17.34-12.57Z"/>
  </g>
</svg>