<?xml version="1.0" encoding="UTF-8"?>
<svg xmlns="http://www.w3.org/2000/svg" xmlns:xlink="http://www.w3.org/1999/xlink" viewBox="0 0 809.07 307.24">
  <defs>
    <style>
      .cls-1 {
        fill: #e8e9f3;
      }

      .cls-2 {
        fill: none;
        stroke: #6ad2ed;
        stroke-miterlimit: 10;
        stroke-width: 3px;
      }

      .cls-3 {
        fill: #ffc52e;
      }
    </style>
  </defs>
  <g id="_1" data-name="1">
    <image width="1080" height="1920" transform="translate(863.21 -16.29) rotate(173.78) scale(.62)" xlink:href="../../../../Downloads/Comp 1/Comp 1_00100.png"/>
  </g>
  <g id="_2" data-name="2">
    <g>
      <g id="RAMKA">
        <rect class="cls-2" x="78.45" y="49.82" width="609.22" height="228.01" rx="32.03" ry="32.03"/>
      </g>
      <g>
        <g>
          <path class="cls-3" d="M268.26,66.44c8.88,0,15.95,4.37,15.95,12.14v1.18c0,7.84-7.07,12.14-15.95,12.14h-1.78c-9.07,0-16.28-4.29-16.28-12.14v-1.18c0-7.77,7.21-12.14,16.28-12.14h1.78ZM256.9,78.58v1.18c0,4.26,3.74,6.55,9.58,6.55h1.48c5.85,0,9.58-2.29,9.58-6.55v-1.18c0-4.22-3.74-6.55-9.58-6.55h-1.48c-5.85,0-9.58,2.33-9.58,6.55Z"/>
          <path class="cls-3" d="M308.03,66.78c6.99,0,9.84,3.07,9.84,7.77v1.04c0,4.85-2.85,7.88-9.84,7.88h-12.95v8.1h-6.55v-24.79h19.5ZM295.08,78.17h12.14c2.52,0,3.96-.74,3.96-2.78v-.67c0-1.92-1.44-2.66-3.96-2.66h-12.14v6.11Z"/>
          <path class="cls-3" d="M349.59,66.78v5.11h-20.87v4.7h18.8v4.77h-18.8v5.07h21.05v5.14h-27.57v-24.79h27.38Z"/>
          <path class="cls-3" d="M374.97,66.78c5.48,0,8.73,3.07,8.73,7.36v1.11c0,3.26-1.89,5.81-5.03,6.85l6.18,9.47h-7.44l-5.85-8.95h-10.88v8.95h-6.55v-24.79h20.83ZM360.68,77.65h12.54c2.52,0,3.81-.78,3.81-2.66v-.55c0-1.81-1.29-2.78-3.81-2.78h-12.54v5.99Z"/>
          <path class="cls-3" d="M409.01,66.78l12.91,24.79h-6.55l-2.89-5.55h-16.84l-2.89,5.55h-6.33l12.88-24.79h9.69ZM398.24,81.02h11.66l-5.07-9.69h-1.59l-5,9.69Z"/>
          <path class="cls-3" d="M450.15,66.78v5.29h-12.43v19.5h-6.55v-19.5h-12.43v-5.29h31.42Z"/>
          <path class="cls-3" d="M469.13,66.44c8.88,0,15.95,4.37,15.95,12.14v1.18c0,7.84-7.07,12.14-15.95,12.14h-1.78c-9.07,0-16.28-4.29-16.28-12.14v-1.18c0-7.77,7.21-12.14,16.28-12.14h1.78ZM457.77,78.58v1.18c0,4.26,3.74,6.55,9.58,6.55h1.48c5.85,0,9.58-2.29,9.58-6.55v-1.18c0-4.22-3.74-6.55-9.58-6.55h-1.48c-5.85,0-9.58,2.33-9.58,6.55Z"/>
          <path class="cls-3" d="M510.24,66.78c5.48,0,8.73,3.07,8.73,7.36v1.11c0,3.26-1.89,5.81-5.03,6.85l6.18,9.47h-7.44l-5.85-8.95h-10.88v8.95h-6.55v-24.79h20.83ZM495.96,77.65h12.54c2.52,0,3.81-.78,3.81-2.66v-.55c0-1.81-1.29-2.78-3.81-2.78h-12.54v5.99Z"/>
        </g>
        <g>
          <path class="cls-1" d="M99.62,122.22h4.99c4.03,0,6.27,2.29,6.27,5.51s-2.26,5.54-6.27,5.54h-3.38v6.89h-1.61v-17.94ZM104.76,131.89c2.63,0,4.5-1.56,4.5-4.16s-1.87-4.13-4.5-4.13h-3.54v8.29h3.54Z"/>
          <path class="cls-1" d="M114.04,127.1h1.51v2.5h.05c.65-1.82,1.9-2.86,3.69-2.86.29,0,.7.03,1.07.13v1.48c-.34-.1-.75-.18-1.22-.18-2.39,0-3.54,2.13-3.54,4.65v7.33h-1.56v-13.05Z"/>
          <path class="cls-1" d="M122.29,133.63c0-3.87,2.91-6.89,6.73-6.89s6.76,3.02,6.76,6.89-2.96,6.89-6.76,6.89-6.73-2.99-6.73-6.89ZM129.05,139.17c2.94,0,5.15-2.42,5.15-5.56s-2.21-5.51-5.15-5.51-5.15,2.42-5.15,5.51,2.16,5.56,5.15,5.56Z"/>
          <path class="cls-1" d="M140.36,128.38h-2.34v-1.27h2.34v-3.61c0-1.92,1.07-2.99,2.91-2.99.52,0,1.17.05,1.56.08v1.33c-.31-.03-.78-.08-1.09-.08-1.33,0-1.79.52-1.79,1.85v3.43h2.89v1.27h-2.89v11.78h-1.59v-11.78Z"/>
          <path class="cls-1" d="M146.28,133.66c0-3.85,2.83-6.92,6.63-6.92,3.38,0,6.47,2.5,6.47,7.25v.26h-11.52c.26,2.99,2.44,4.91,5.07,4.91,1.85,0,3.48-.88,4.37-2.42l1.2.75c-.91,1.51-2.73,3.02-5.51,3.02-3.85,0-6.71-2.96-6.71-6.86ZM157.73,133.03c-.18-2.6-1.85-4.94-4.86-4.94-2.57,0-4.76,1.82-4.99,4.94h9.85Z"/>
          <path class="cls-1" d="M161.52,138.15l.96-.94c.88,1.14,2.13,1.98,3.87,1.98,1.9,0,3.2-.99,3.2-2.47,0-1.77-1.92-2.31-3.54-2.89-2.21-.78-3.67-1.74-3.67-3.61,0-2.03,1.72-3.48,4.26-3.48,1.87,0,3.25.81,4.06,1.79l-.94.99c-.7-.86-1.74-1.46-3.09-1.46-1.53,0-2.7.81-2.7,2.05,0,1.51,1.72,2.03,2.99,2.5,2,.7,4.21,1.56,4.21,4.03,0,2.29-1.95,3.87-4.76,3.87-2.29,0-3.95-1.07-4.86-2.37Z"/>
          <path class="cls-1" d="M172.21,145.23v-1.3c.31.03.75.05,1.01.05,1.27,0,1.79-.55,1.79-2v-14.87h1.56v15.21c0,2-1.07,2.99-3.15,2.99-.39,0-.86-.05-1.22-.08ZM175.74,122.89c.6,0,1.12.52,1.12,1.09s-.52,1.09-1.12,1.09-1.09-.49-1.09-1.09.49-1.09,1.09-1.09Z"/>
          <path class="cls-1" d="M180.08,133.63c0-3.87,2.91-6.89,6.73-6.89s6.76,3.02,6.76,6.89-2.96,6.89-6.76,6.89-6.73-2.99-6.73-6.89ZM186.84,139.17c2.94,0,5.15-2.42,5.15-5.56s-2.21-5.51-5.15-5.51-5.15,2.42-5.15,5.51,2.16,5.56,5.15,5.56Z"/>
          <path class="cls-1" d="M197.14,127.1h1.51v2.08h.05c.81-1.4,2.44-2.42,4.58-2.42,3.2,0,5.07,1.92,5.07,5.56v7.83h-1.56v-7.67c0-2.94-1.4-4.42-3.82-4.42s-4.24,1.64-4.24,4.52v7.57h-1.59v-13.05Z"/>
          <path class="cls-1" d="M211.65,133.63c0-3.85,2.81-6.89,6.47-6.89,2.37,0,4.47,1.3,5.33,3.17h.03v-2.81h1.56v13.05h-1.51v-2.86h-.03c-.88,2-3.07,3.22-5.36,3.22-3.61,0-6.5-2.99-6.5-6.89ZM218.41,139.17c2.89,0,5.15-2.42,5.15-5.54s-2.21-5.54-5.15-5.54-5.17,2.42-5.17,5.54,2.24,5.54,5.17,5.54Z"/>
          <path class="cls-1" d="M229.69,120.66h1.56v19.5h-1.56v-19.5Z"/>
          <path class="cls-1" d="M235.93,127.1h1.51v2.08h.05c.81-1.4,2.44-2.42,4.58-2.42,3.2,0,5.07,1.92,5.07,5.56v7.83h-1.56v-7.67c0-2.94-1.4-4.42-3.82-4.42s-4.24,1.64-4.24,4.52v7.57h-1.59v-13.05Z"/>
          <path class="cls-1" d="M252.28,122.89c.6,0,1.12.52,1.12,1.09s-.52,1.09-1.12,1.09-1.12-.49-1.12-1.09.52-1.09,1.12-1.09ZM251.5,127.1h1.56v13.05h-1.56v-13.05Z"/>
          <path class="cls-1" d="M256.6,133.66c0-3.85,2.83-6.92,6.63-6.92,3.38,0,6.47,2.5,6.47,7.25v.26h-11.52c.26,2.99,2.44,4.91,5.07,4.91,1.85,0,3.48-.88,4.37-2.42l1.2.75c-.91,1.51-2.73,3.02-5.51,3.02-3.85,0-6.71-2.96-6.71-6.86ZM268.04,133.03c-.18-2.6-1.85-4.94-4.86-4.94-2.57,0-4.76,1.82-4.99,4.94h9.85Z"/>
          <path class="cls-1" d="M279.32,127.1h1.51v2.08h.05c.81-1.4,2.44-2.42,4.58-2.42,3.2,0,5.07,1.92,5.07,5.56v7.83h-1.56v-7.67c0-2.94-1.4-4.42-3.82-4.42s-4.24,1.64-4.24,4.52v7.57h-1.59v-13.05Z"/>
          <path class="cls-1" d="M293.83,133.63c0-3.85,2.81-6.89,6.47-6.89,2.37,0,4.47,1.3,5.33,3.17h.03v-2.81h1.56v13.05h-1.51v-2.86h-.03c-.88,2-3.07,3.22-5.36,3.22-3.61,0-6.5-2.99-6.5-6.89ZM300.59,139.17c2.89,0,5.15-2.42,5.15-5.54s-2.21-5.54-5.15-5.54-5.17,2.42-5.17,5.54,2.24,5.54,5.17,5.54Z"/>
          <path class="cls-1" d="M312.32,143.17l1.01-.88c.94,1.14,2.52,1.79,4.42,1.79,3.07,0,4.89-1.69,4.89-4.6v-2.21h-.03c-.86,1.95-2.99,3.25-5.33,3.25-3.69,0-6.53-3.04-6.53-6.92s2.83-6.86,6.47-6.86c2.29,0,4.45,1.22,5.33,3.15h.03v-2.78h1.56v12.17c0,3.85-2.24,6.03-6.32,6.03-2.44,0-4.45-.75-5.51-2.13ZM317.52,139.17c2.94,0,5.15-2.42,5.15-5.51s-2.26-5.56-5.15-5.56-5.17,2.39-5.17,5.56,2.21,5.51,5.17,5.51Z"/>
          <path class="cls-1" d="M328.75,127.1h1.51v2.5h.05c.65-1.82,1.9-2.86,3.69-2.86.29,0,.7.03,1.07.13v1.48c-.34-.1-.75-.18-1.22-.18-2.39,0-3.54,2.13-3.54,4.65v7.33h-1.56v-13.05Z"/>
          <path class="cls-1" d="M336.99,133.63c0-3.85,2.81-6.89,6.47-6.89,2.37,0,4.47,1.3,5.33,3.17h.03v-2.81h1.56v13.05h-1.51v-2.86h-.03c-.88,2-3.07,3.22-5.36,3.22-3.61,0-6.5-2.99-6.5-6.89ZM343.75,139.17c2.89,0,5.15-2.42,5.15-5.54s-2.21-5.54-5.15-5.54-5.17,2.42-5.17,5.54,2.24,5.54,5.17,5.54Z"/>
          <path class="cls-1" d="M354.98,127.1h1.51v2.08h.05c.81-1.46,2.31-2.42,4.45-2.42s3.61.94,4.32,2.86c.83-1.74,2.44-2.86,4.71-2.86,3.17,0,4.86,2.03,4.86,5.59v7.8h-1.59v-7.49c0-2.94-1.17-4.6-3.46-4.6-2.42,0-4.06,1.61-4.06,4.37v7.72h-1.56v-7.51c0-2.96-1.3-4.58-3.59-4.58-2.42,0-4.06,1.72-4.06,4.6v7.49h-1.59v-13.05Z"/>
          <path class="cls-1" d="M383.87,138.15l.96-.94c.88,1.14,2.13,1.98,3.87,1.98,1.9,0,3.2-.99,3.2-2.47,0-1.77-1.92-2.31-3.54-2.89-2.21-.78-3.67-1.74-3.67-3.61,0-2.03,1.72-3.48,4.26-3.48,1.87,0,3.25.81,4.06,1.79l-.94.99c-.7-.86-1.74-1.46-3.09-1.46-1.53,0-2.7.81-2.7,2.05,0,1.51,1.72,2.03,2.99,2.5,2,.7,4.21,1.56,4.21,4.03,0,2.29-1.95,3.87-4.76,3.87-2.29,0-3.95-1.07-4.86-2.37Z"/>
          <path class="cls-1" d="M395.93,133.66c0-3.87,2.89-6.92,6.73-6.92,2.47,0,4.65,1.27,5.75,3.25l-1.27.78c-.83-1.64-2.5-2.68-4.47-2.68-2.99,0-5.12,2.44-5.12,5.56s2.13,5.51,5.12,5.51c1.98,0,3.64-1.01,4.45-2.65l1.3.78c-1.12,1.98-3.25,3.22-5.75,3.22-3.82,0-6.73-2.96-6.73-6.86Z"/>
          <path class="cls-1" d="M410.78,133.66c0-3.85,2.83-6.92,6.63-6.92,3.38,0,6.47,2.5,6.47,7.25v.26h-11.52c.26,2.99,2.44,4.91,5.07,4.91,1.85,0,3.48-.88,4.37-2.42l1.2.75c-.91,1.51-2.73,3.02-5.51,3.02-3.85,0-6.71-2.96-6.71-6.86ZM422.22,133.03c-.18-2.6-1.85-4.94-4.86-4.94-2.57,0-4.76,1.82-4.99,4.94h9.85Z"/>
          <path class="cls-1" d="M427.44,127.1h1.51v2.08h.05c.81-1.4,2.44-2.42,4.58-2.42,3.2,0,5.07,1.92,5.07,5.56v7.83h-1.56v-7.67c0-2.94-1.4-4.42-3.82-4.42s-4.24,1.64-4.24,4.52v7.57h-1.59v-13.05Z"/>
          <path class="cls-1" d="M441.67,145.23v-1.3c.36.03.7.1,1.27.1,1.12,0,1.87-.34,2.6-2.24l.75-1.95-5.54-12.74h1.79l4.52,10.79,4.21-10.79h1.69l-6.14,15.13c-.88,2.24-1.77,3.07-3.98,3.07-.47,0-.86-.05-1.2-.08Z"/>
          <path class="cls-1" d="M452.66,139.06c0-.73.57-1.33,1.3-1.33.78,0,1.38.6,1.38,1.33,0,.26-.13.65-.23.86l-1.48,2.76h-1.12l1.04-2.34c-.52-.16-.88-.65-.88-1.27Z"/>
          <path class="cls-1" d="M465.35,120.66h1.56v13.68l7.28-7.07h2.03l-5.82,5.62,6.14,7.28h-1.98l-5.2-6.27-2.44,2.34v3.93h-1.56v-19.5Z"/>
          <path class="cls-1" d="M479.89,137.43v-9.05h-2.34v-1.27h2.34v-3.2h1.56v3.2h3.35v1.27h-3.35v8.76c0,1.4.49,1.92,1.74,1.92.6,0,1.27-.13,1.61-.21v1.33c-.44.08-1.33.18-1.92.18-1.56,0-2.99-.65-2.99-2.94Z"/>
          <path class="cls-1" d="M486.96,133.63c0-3.87,2.91-6.89,6.73-6.89s6.76,3.02,6.76,6.89-2.96,6.89-6.76,6.89-6.73-2.99-6.73-6.89ZM493.72,139.17c2.94,0,5.15-2.42,5.15-5.56s-2.21-5.51-5.15-5.51-5.15,2.42-5.15,5.51,2.16,5.56,5.15,5.56ZM493.54,121.15h1.79l-1.98,4.13h-1.27l1.46-4.13Z"/>
          <path class="cls-1" d="M504.01,127.1h1.51v2.5h.05c.65-1.82,1.9-2.86,3.69-2.86.29,0,.7.03,1.07.13v1.48c-.34-.1-.75-.18-1.22-.18-2.39,0-3.54,2.13-3.54,4.65v7.33h-1.56v-13.05Z"/>
          <path class="cls-1" d="M512.26,133.66c0-3.85,2.83-6.92,6.63-6.92,3.38,0,6.47,2.5,6.47,7.25v.26h-11.52c.26,2.99,2.44,4.91,5.07,4.91,1.85,0,3.48-.88,4.37-2.42l1.2.75c-.91,1.51-2.73,3.02-5.51,3.02-3.85,0-6.71-2.96-6.71-6.86ZM523.7,133.03c-.18-2.6-1.85-4.94-4.86-4.94-2.57,0-4.76,1.82-4.99,4.94h9.85Z"/>
          <path class="cls-1" d="M533.91,133.63c0-3.87,2.91-6.89,6.73-6.89s6.76,3.02,6.76,6.89-2.96,6.89-6.76,6.89-6.73-2.99-6.73-6.89ZM540.67,139.17c2.94,0,5.15-2.42,5.15-5.56s-2.21-5.51-5.15-5.51-5.15,2.42-5.15,5.51,2.16,5.56,5.15,5.56Z"/>
          <path class="cls-1" d="M550.97,127.1h1.51v2.89h.05c.88-2.03,3.04-3.25,5.33-3.25,3.64,0,6.5,3.02,6.5,6.92s-2.78,6.86-6.47,6.86c-2.34,0-4.47-1.27-5.3-3.15h-.05v7.62h-1.56v-17.89ZM557.62,139.17c2.94,0,5.15-2.42,5.15-5.51s-2.24-5.56-5.15-5.56-5.17,2.42-5.17,5.54,2.21,5.54,5.17,5.54Z"/>
          <path class="cls-1" d="M566.83,133.63c0-3.87,2.91-6.89,6.73-6.89s6.76,3.02,6.76,6.89-2.96,6.89-6.76,6.89-6.73-2.99-6.73-6.89ZM573.59,139.17c2.94,0,5.15-2.42,5.15-5.56s-2.21-5.51-5.15-5.51-5.15,2.42-5.15,5.51,2.16,5.56,5.15,5.56Z"/>
          <path class="cls-1" d="M581.91,127.1h1.74l3.2,11.75,3.67-11.75h1.79l3.59,11.75,3.38-11.75h1.64l-3.98,13.05h-2.11l-3.43-11.39-3.51,11.39h-2.11l-3.87-13.05Z"/>
          <path class="cls-1" d="M604.4,122.89c.6,0,1.12.52,1.12,1.09s-.52,1.09-1.12,1.09-1.12-.49-1.12-1.09.52-1.09,1.12-1.09ZM603.62,127.1h1.56v13.05h-1.56v-13.05Z"/>
          <path class="cls-1" d="M608.71,133.66c0-3.85,2.83-6.92,6.63-6.92,3.38,0,6.47,2.5,6.47,7.25v.26h-11.52c.26,2.99,2.44,4.91,5.07,4.91,1.85,0,3.48-.88,4.37-2.42l1.2.75c-.91,1.51-2.73,3.02-5.51,3.02-3.85,0-6.71-2.96-6.71-6.86ZM620.15,133.03c-.18-2.6-1.85-4.94-4.86-4.94-2.57,0-4.76,1.82-4.99,4.94h9.85Z"/>
          <path class="cls-1" d="M624.31,133.63c0-3.85,2.81-6.89,6.47-6.89,2.37,0,4.47,1.3,5.33,3.17h.03v-9.26h1.56v19.5h-1.51v-2.86h-.03c-.88,2-3.07,3.22-5.36,3.22-3.61,0-6.5-2.99-6.5-6.89ZM631.07,139.17c2.89,0,5.15-2.42,5.15-5.54s-2.21-5.54-5.15-5.54-5.17,2.42-5.17,5.54,2.24,5.54,5.17,5.54Z"/>
          <path class="cls-1" d="M641,138.91l8.22-10.53h-8.22v-1.27h9.98v1.3l-8.16,10.48h8.19v1.27h-10.01v-1.25Z"/>
          <path class="cls-1" d="M653.17,133.63c0-3.85,2.81-6.89,6.47-6.89,2.37,0,4.47,1.3,5.33,3.17h.03v-2.81h1.56v13.03l.05.03c-.96.6-1.98,1.46-1.98,2.52,0,.88.57,1.33,1.51,1.33.44,0,1.01-.13,1.43-.29v.99c-.34.13-.96.34-1.77.34-1.48,0-2.52-.81-2.52-2.13,0-1.22,1.07-2.21,2.11-2.76h-.34v-2.86h-.03c-.88,2-3.07,3.22-5.36,3.22-3.61,0-6.5-2.99-6.5-6.89ZM659.93,139.17c2.89,0,5.15-2.42,5.15-5.54s-2.21-5.54-5.15-5.54-5.17,2.42-5.17,5.54,2.24,5.54,5.17,5.54Z"/>
          <path class="cls-1" d="M129.32,152.17h1.56v8.22h.05c.81-1.4,2.39-2.42,4.52-2.42,3.2,0,5.07,1.92,5.07,5.56v7.83h-1.56v-7.67c0-2.94-1.4-4.42-3.82-4.42s-4.24,1.64-4.24,4.52v7.57h-1.59v-19.19Z"/>
          <path class="cls-1" d="M145.67,154.09c.6,0,1.12.52,1.12,1.09s-.52,1.09-1.12,1.09-1.12-.49-1.12-1.09.52-1.09,1.12-1.09ZM144.89,158.3h1.56v13.05h-1.56v-13.05Z"/>
          <path class="cls-1" d="M149.63,169.35l.96-.94c.88,1.14,2.13,1.98,3.87,1.98,1.9,0,3.2-.99,3.2-2.47,0-1.77-1.92-2.31-3.54-2.89-2.21-.78-3.67-1.74-3.67-3.61,0-2.03,1.72-3.48,4.26-3.48,1.87,0,3.25.81,4.06,1.79l-.94.99c-.7-.86-1.74-1.46-3.09-1.46-1.53,0-2.7.81-2.7,2.05,0,1.51,1.72,2.03,2.99,2.5,2,.7,4.21,1.56,4.21,4.03,0,2.29-1.95,3.87-4.76,3.87-2.29,0-3.95-1.07-4.86-2.37Z"/>
          <path class="cls-1" d="M163.54,168.63v-9.05h-2.34v-1.27h2.34v-3.2h1.56v3.2h3.35v1.27h-3.35v8.76c0,1.4.49,1.92,1.74,1.92.6,0,1.27-.13,1.61-.21v1.33c-.44.08-1.33.18-1.92.18-1.56,0-2.99-.65-2.99-2.94Z"/>
          <path class="cls-1" d="M170.61,164.83c0-3.87,2.91-6.89,6.73-6.89s6.76,3.02,6.76,6.89-2.96,6.89-6.76,6.89-6.73-2.99-6.73-6.89ZM177.37,170.37c2.94,0,5.15-2.42,5.15-5.56s-2.21-5.51-5.15-5.51-5.15,2.42-5.15,5.51,2.16,5.56,5.15,5.56Z"/>
          <path class="cls-1" d="M187.66,158.3h1.51v2.5h.05c.65-1.82,1.9-2.86,3.69-2.86.29,0,.7.03,1.07.13v1.48c-.34-.1-.75-.18-1.22-.18-2.39,0-3.54,2.13-3.54,4.65v7.33h-1.56v-13.05Z"/>
          <path class="cls-1" d="M198.06,154.09c.6,0,1.12.52,1.12,1.09s-.52,1.09-1.12,1.09-1.12-.49-1.12-1.09.52-1.09,1.12-1.09ZM197.28,158.3h1.56v13.05h-1.56v-13.05Z"/>
          <path class="cls-1" d="M202.38,164.86c0-3.85,2.83-6.92,6.63-6.92,3.38,0,6.47,2.5,6.47,7.25v.26h-11.52c.26,2.99,2.44,4.91,5.07,4.91,1.85,0,3.48-.88,4.37-2.42l1.2.75c-.65,1.07-1.72,2.11-3.28,2.65-.96.6-1.98,1.46-1.98,2.52,0,.88.57,1.33,1.51,1.33.44,0,1.01-.13,1.43-.29v.99c-.34.13-.96.34-1.77.34-1.48,0-2.52-.81-2.52-2.13,0-.99.7-1.82,1.53-2.39h-.44c-3.85,0-6.71-2.96-6.71-6.86ZM213.82,164.23c-.18-2.6-1.85-4.94-4.86-4.94-2.57,0-4.76,1.82-4.99,4.94h9.85Z"/>
          <path class="cls-1" d="M223.2,158.3h1.74l3.2,11.75,3.67-11.75h1.79l3.59,11.75,3.38-11.75h1.64l-3.98,13.05h-2.11l-3.43-11.39-3.51,11.39h-2.11l-3.87-13.05Z"/>
          <path class="cls-1" d="M254.98,154.79h-5.9v-1.38h13.44v1.38h-5.93v16.56h-1.61v-16.56Z"/>
          <path class="cls-1" d="M262.02,158.3h1.74l3.2,11.75,3.67-11.75h1.79l3.59,11.75,3.38-11.75h1.64l-3.98,13.05h-2.11l-3.43-11.39-3.51,11.39h-2.11l-3.87-13.05Z"/>
          <path class="cls-1" d="M282.59,164.83c0-3.87,2.91-6.89,6.73-6.89s6.76,3.02,6.76,6.89-2.96,6.89-6.76,6.89-6.73-2.99-6.73-6.89ZM289.35,170.37c2.94,0,5.15-2.42,5.15-5.56s-2.21-5.51-5.15-5.51-5.15,2.42-5.15,5.51,2.16,5.56,5.15,5.56Z"/>
          <path class="cls-1" d="M300.42,154.09c.6,0,1.12.52,1.12,1.09s-.52,1.09-1.12,1.09-1.12-.49-1.12-1.09.52-1.09,1.12-1.09ZM299.64,158.3h1.56v13.05h-1.56v-13.05Z"/>
          <path class="cls-1" d="M305.81,158.3h1.51v2.08h.05c.81-1.46,2.31-2.42,4.45-2.42s3.61.94,4.32,2.86c.83-1.74,2.44-2.86,4.71-2.86,3.17,0,4.86,2.03,4.86,5.59v7.8h-1.59v-7.49c0-2.94-1.17-4.6-3.46-4.6-2.42,0-4.06,1.61-4.06,4.37v7.72h-1.56v-7.51c0-2.96-1.3-4.58-3.59-4.58-2.42,0-4.06,1.72-4.06,4.6v7.49h-1.59v-13.05Z"/>
          <path class="cls-1" d="M337.14,159.58h-2.34v-1.27h2.34v-3.61c0-1.92,1.07-2.99,2.91-2.99.52,0,1.17.05,1.56.08v1.33c-.31-.03-.78-.08-1.09-.08-1.33,0-1.79.52-1.79,1.85v3.43h2.89v1.27h-2.89v11.78h-1.59v-11.78ZM344.96,154.09c.6,0,1.12.52,1.12,1.09s-.52,1.09-1.12,1.09-1.12-.49-1.12-1.09.52-1.09,1.12-1.09ZM344.18,158.3h1.56v13.05h-1.56v-13.05Z"/>
          <path class="cls-1" d="M350.5,151.86h1.56v19.5h-1.56v-19.5Z"/>
          <path class="cls-1" d="M356.74,158.3h1.51v2.08h.05c.81-1.46,2.31-2.42,4.45-2.42s3.61.94,4.32,2.86c.83-1.74,2.44-2.86,4.71-2.86,3.17,0,4.86,2.03,4.86,5.59v7.8h-1.59v-7.49c0-2.94-1.17-4.6-3.46-4.6-2.42,0-4.06,1.61-4.06,4.37v7.72h-1.56v-7.51c0-2.96-1.3-4.58-3.59-4.58-2.42,0-4.06,1.72-4.06,4.6v7.49h-1.59v-13.05Z"/>
          <path class="cls-1" d="M381.78,154.09c.6,0,1.12.52,1.12,1.09s-.52,1.09-1.12,1.09-1.12-.49-1.12-1.09.52-1.09,1.12-1.09ZM381,158.3h1.56v13.05h-1.56v-13.05Z"/>
          <path class="cls-1" d="M386.09,164.86c0-3.85,2.83-6.92,6.63-6.92,3.38,0,6.47,2.5,6.47,7.25v.26h-11.52c.26,2.99,2.44,4.91,5.07,4.91,1.85,0,3.48-.88,4.37-2.42l1.2.75c-.91,1.51-2.73,3.02-5.51,3.02-3.85,0-6.71-2.96-6.71-6.86ZM397.53,164.23c-.18-2.6-1.85-4.94-4.86-4.94-2.57,0-4.76,1.82-4.99,4.94h9.85Z"/>
          <path class="cls-1" d="M401.87,170.26c0-.75.6-1.38,1.35-1.38s1.35.62,1.35,1.38-.6,1.33-1.35,1.33-1.35-.6-1.35-1.33Z"/>
          <path class="cls-1" d="M412.98,170.06l11.44-15.26h-11.15v-1.38h13.1v1.35l-11.49,15.21h11.49v1.38h-13.39v-1.3Z"/>
          <path class="cls-1" d="M428.34,164.83c0-3.85,2.81-6.89,6.47-6.89,2.37,0,4.47,1.3,5.33,3.17h.03v-2.81h1.56v13.05h-1.51v-2.86h-.03c-.88,2-3.07,3.22-5.36,3.22-3.61,0-6.5-2.99-6.5-6.89ZM435.1,170.37c2.89,0,5.15-2.42,5.15-5.54s-2.21-5.54-5.15-5.54-5.17,2.42-5.17,5.54,2.24,5.54,5.17,5.54Z"/>
          <path class="cls-1" d="M445.27,164.83c0-3.85,2.81-6.89,6.47-6.89,2.37,0,4.47,1.3,5.33,3.17h.03v-9.26h1.56v19.5h-1.51v-2.86h-.03c-.88,2-3.07,3.22-5.36,3.22-3.61,0-6.5-2.99-6.5-6.89ZM452.03,170.37c2.89,0,5.15-2.42,5.15-5.54s-2.21-5.54-5.15-5.54-5.17,2.42-5.17,5.54,2.24,5.54,5.17,5.54Z"/>
          <path class="cls-1" d="M464.95,168.5h-.05v2.86h-1.51v-19.5h1.56v9.26h.05c.86-1.87,2.96-3.17,5.3-3.17,3.69,0,6.5,3.04,6.5,6.89s-2.89,6.89-6.53,6.89c-2.29,0-4.45-1.22-5.33-3.22ZM470.05,170.37c2.91,0,5.15-2.39,5.15-5.54s-2.21-5.54-5.15-5.54-5.17,2.44-5.17,5.54,2.26,5.54,5.17,5.54Z"/>
          <path class="cls-1" d="M479.28,164.83c0-3.85,2.81-6.89,6.47-6.89,2.37,0,4.47,1.3,5.33,3.17h.03v-2.81h1.56v13.05h-1.51v-2.86h-.03c-.88,2-3.07,3.22-5.36,3.22-3.61,0-6.5-2.99-6.5-6.89ZM486.03,170.37c2.89,0,5.15-2.42,5.15-5.54s-2.21-5.54-5.15-5.54-5.17,2.42-5.17,5.54,2.24,5.54,5.17,5.54Z"/>
          <path class="cls-1" d="M497.27,158.3h1.51v2.08h.05c.81-1.46,2.31-2.42,4.45-2.42s3.61.94,4.32,2.86c.83-1.74,2.44-2.86,4.71-2.86,3.17,0,4.86,2.03,4.86,5.59v7.8h-1.59v-7.49c0-2.94-1.17-4.6-3.46-4.6-2.42,0-4.06,1.61-4.06,4.37v7.72h-1.56v-7.51c0-2.96-1.3-4.58-3.59-4.58-2.42,0-4.06,1.72-4.06,4.6v7.49h-1.59v-13.05Z"/>
          <path class="cls-1" d="M526.52,164.83c0-3.87,2.91-6.89,6.73-6.89s6.76,3.02,6.76,6.89-2.96,6.89-6.76,6.89-6.73-2.99-6.73-6.89ZM533.28,170.37c2.94,0,5.15-2.42,5.15-5.56s-2.21-5.51-5.15-5.51-5.15,2.42-5.15,5.51,2.16,5.56,5.15,5.56Z"/>
          <path class="cls-1" d="M548.2,169.35l.96-.94c.88,1.14,2.13,1.98,3.87,1.98,1.9,0,3.2-.99,3.2-2.47,0-1.77-1.92-2.31-3.54-2.89-2.21-.78-3.67-1.74-3.67-3.61,0-2.03,1.72-3.48,4.26-3.48,1.87,0,3.25.81,4.06,1.79l-.94.99c-.7-.86-1.74-1.46-3.09-1.46-1.53,0-2.7.81-2.7,2.05,0,1.51,1.72,2.03,2.99,2.5,2,.7,4.21,1.56,4.21,4.03,0,2.29-1.95,3.87-4.76,3.87-2.29,0-3.95-1.07-4.86-2.37ZM552.96,152.35h1.79l-1.98,4.13h-1.27l1.46-4.13Z"/>
          <path class="cls-1" d="M559.43,158.3h1.74l3.2,11.75,3.67-11.75h1.79l3.59,11.75,3.38-11.75h1.64l-3.98,13.05h-2.11l-3.43-11.39-3.51,11.39h-2.11l-3.87-13.05Z"/>
          <path class="cls-1" d="M581.92,154.09c.6,0,1.12.52,1.12,1.09s-.52,1.09-1.12,1.09-1.12-.49-1.12-1.09.52-1.09,1.12-1.09ZM581.14,158.3h1.56v13.05h-1.56v-13.05Z"/>
          <path class="cls-1" d="M586.24,164.83c0-3.85,2.81-6.89,6.47-6.89,2.37,0,4.47,1.3,5.33,3.17h.03v-2.81h1.56v13.05h-1.51v-2.86h-.03c-.88,2-3.07,3.22-5.36,3.22-3.61,0-6.5-2.99-6.5-6.89ZM593,170.37c2.89,0,5.15-2.42,5.15-5.54s-2.21-5.54-5.15-5.54-5.17,2.42-5.17,5.54,2.24,5.54,5.17,5.54Z"/>
          <path class="cls-1" d="M605.01,168.63v-9.05h-2.34v-1.27h2.34v-3.2h1.56v3.2h3.35v1.27h-3.35v8.76c0,1.4.49,1.92,1.74,1.92.6,0,1.27-.13,1.61-.21v1.33c-.44.08-1.33.18-1.92.18-1.56,0-2.99-.65-2.99-2.94Z"/>
          <path class="cls-1" d="M611.59,162.59l1.74-1.07v-9.67h1.56v8.74l2.18-1.33v1.43l-2.18,1.33v9.33h-1.56v-8.4l-1.74,1.04v-1.4Z"/>
          <path class="cls-1" d="M619.05,164.83c0-3.87,2.91-6.89,6.73-6.89s6.76,3.02,6.76,6.89-2.96,6.89-6.76,6.89-6.73-2.99-6.73-6.89ZM625.81,170.37c2.94,0,5.15-2.42,5.15-5.56s-2.21-5.51-5.15-5.51-5.15,2.42-5.15,5.51,2.16,5.56,5.15,5.56Z"/>
          <path class="cls-1" d="M634.83,170.26c0-.73.57-1.33,1.3-1.33.78,0,1.38.6,1.38,1.33,0,.26-.13.65-.23.86l-1.48,2.76h-1.12l1.04-2.34c-.52-.16-.88-.65-.88-1.27Z"/>
          <path class="cls-1" d="M134.18,183.06h1.56v13.68l7.28-7.07h2.03l-5.82,5.62,6.14,7.28h-1.98l-5.2-6.27-2.44,2.34v3.93h-1.56v-19.5Z"/>
          <path class="cls-1" d="M146.43,196.03c0-3.85,2.81-6.89,6.47-6.89,2.37,0,4.47,1.3,5.33,3.17h.03v-2.81h1.56v13.05h-1.51v-2.86h-.03c-.88,2-3.07,3.22-5.36,3.22-3.61,0-6.5-2.99-6.5-6.89ZM153.19,201.57c2.89,0,5.15-2.42,5.15-5.54s-2.21-5.54-5.15-5.54-5.17,2.42-5.17,5.54,2.24,5.54,5.17,5.54Z"/>
          <path class="cls-1" d="M163.35,196.03c0-3.85,2.81-6.89,6.47-6.89,2.37,0,4.47,1.3,5.33,3.17h.03v-9.26h1.56v19.5h-1.51v-2.86h-.03c-.88,2-3.07,3.22-5.36,3.22-3.61,0-6.5-2.99-6.5-6.89ZM170.11,201.57c2.89,0,5.15-2.42,5.15-5.54s-2.21-5.54-5.15-5.54-5.17,2.42-5.17,5.54,2.24,5.54,5.17,5.54Z"/>
          <path class="cls-1" d="M181.42,189.5h1.51v2.5h.05c.65-1.82,1.9-2.86,3.69-2.86.29,0,.7.03,1.07.13v1.48c-.34-.1-.75-.18-1.22-.18-2.39,0-3.54,2.13-3.54,4.65v7.33h-1.56v-13.05Z"/>
          <path class="cls-1" d="M197.88,185.29c.6,0,1.12.52,1.12,1.09s-.52,1.09-1.12,1.09-1.12-.49-1.12-1.09.52-1.09,1.12-1.09ZM197.1,189.5h1.56v13.05h-1.56v-13.05Z"/>
          <path class="cls-1" d="M209.37,183.06h1.56v13.68l7.28-7.07h2.03l-5.82,5.62,6.14,7.28h-1.98l-5.2-6.27-2.44,2.34v3.93h-1.56v-19.5Z"/>
          <path class="cls-1" d="M221.62,196.03c0-3.87,2.91-6.89,6.73-6.89s6.76,3.02,6.76,6.89-2.96,6.89-6.76,6.89-6.73-2.99-6.73-6.89ZM228.38,201.57c2.94,0,5.15-2.42,5.15-5.56s-2.21-5.51-5.15-5.51-5.15,2.42-5.15,5.51,2.16,5.56,5.15,5.56Z"/>
          <path class="cls-1" d="M238.67,189.5h1.51v2.08h.05c.81-1.46,2.31-2.42,4.45-2.42s3.61.94,4.32,2.86c.83-1.74,2.44-2.86,4.71-2.86,3.17,0,4.86,2.03,4.86,5.59v7.8h-1.59v-7.49c0-2.94-1.17-4.6-3.46-4.6-2.42,0-4.06,1.61-4.06,4.37v7.72h-1.56v-7.51c0-2.96-1.3-4.58-3.59-4.58-2.42,0-4.06,1.72-4.06,4.6v7.49h-1.59v-13.05Z"/>
          <path class="cls-1" d="M262.93,189.5h1.51v2.89h.05c.88-2.03,3.04-3.25,5.33-3.25,3.64,0,6.5,3.02,6.5,6.92s-2.78,6.86-6.47,6.86c-2.34,0-4.47-1.27-5.3-3.15h-.05v7.62h-1.56v-17.89ZM269.59,201.57c2.94,0,5.15-2.42,5.15-5.51s-2.24-5.56-5.15-5.56-5.17,2.42-5.17,5.54,2.21,5.54,5.17,5.54Z"/>
          <path class="cls-1" d="M278.79,196.03c0-3.87,2.91-6.89,6.73-6.89s6.76,3.02,6.76,6.89-2.96,6.89-6.76,6.89-6.73-2.99-6.73-6.89ZM285.55,201.57c2.94,0,5.15-2.42,5.15-5.56s-2.21-5.51-5.15-5.51-5.15,2.42-5.15,5.51,2.16,5.56,5.15,5.56Z"/>
          <path class="cls-1" d="M294.21,201.31l8.22-10.53h-8.22v-1.27h9.98v1.3l-8.16,10.48h8.19v1.27h-10.01v-1.25Z"/>
          <path class="cls-1" d="M306.35,207.63v-1.3c.36.03.7.1,1.27.1,1.12,0,1.87-.34,2.6-2.24l.75-1.95-5.54-12.74h1.79l4.52,10.79,4.21-10.79h1.69l-6.14,15.13c-.88,2.24-1.77,3.07-3.98,3.07-.47,0-.86-.05-1.2-.08Z"/>
          <path class="cls-1" d="M318.86,196.06c0-3.87,2.89-6.92,6.73-6.92,2.47,0,4.65,1.27,5.75,3.25l-1.27.78c-.83-1.64-2.5-2.68-4.47-2.68-2.99,0-5.12,2.44-5.12,5.56s2.13,5.51,5.12,5.51c1.98,0,3.64-1.01,4.45-2.65l1.3.78c-1.12,1.98-3.25,3.22-5.75,3.22-3.82,0-6.73-2.96-6.73-6.86Z"/>
          <path class="cls-1" d="M332.43,207.63v-1.3c.31.03.75.05,1.01.05,1.27,0,1.79-.55,1.79-2v-14.87h1.56v15.21c0,2-1.07,2.99-3.15,2.99-.39,0-.86-.05-1.22-.08ZM335.97,185.29c.6,0,1.12.52,1.12,1.09s-.52,1.09-1.12,1.09-1.09-.49-1.09-1.09.49-1.09,1.09-1.09Z"/>
          <path class="cls-1" d="M340.31,196.06c0-3.85,2.83-6.92,6.63-6.92,3.38,0,6.47,2.5,6.47,7.25v.26h-11.52c.26,2.99,2.44,4.91,5.07,4.91,1.85,0,3.48-.88,4.37-2.42l1.2.75c-.65,1.07-1.72,2.11-3.28,2.65-.96.6-1.98,1.46-1.98,2.52,0,.88.57,1.33,1.51,1.33.44,0,1.01-.13,1.43-.29v.99c-.34.13-.96.34-1.77.34-1.48,0-2.52-.81-2.52-2.13,0-.99.7-1.82,1.53-2.39h-.44c-3.85,0-6.71-2.96-6.71-6.86ZM351.75,195.43c-.18-2.6-1.85-4.94-4.86-4.94-2.57,0-4.76,1.82-4.99,4.94h9.85Z"/>
          <path class="cls-1" d="M355.8,201.46c0-.73.57-1.33,1.3-1.33.78,0,1.38.6,1.38,1.33,0,.26-.13.65-.23.86l-1.48,2.76h-1.12l1.04-2.34c-.52-.16-.88-.65-.88-1.27Z"/>
          <path class="cls-1" d="M367.37,196.03c0-3.85,2.81-6.89,6.47-6.89,2.37,0,4.47,1.3,5.33,3.17h.03v-2.81h1.56v13.05h-1.51v-2.86h-.03c-.88,2-3.07,3.22-5.36,3.22-3.61,0-6.5-2.99-6.5-6.89ZM374.13,201.57c2.89,0,5.15-2.42,5.15-5.54s-2.21-5.54-5.15-5.54-5.17,2.42-5.17,5.54,2.24,5.54,5.17,5.54Z"/>
          <path class="cls-1" d="M386.98,199.7h-.05v2.86h-1.51v-19.5h1.56v9.26h.05c.86-1.87,2.96-3.17,5.3-3.17,3.69,0,6.5,3.04,6.5,6.89s-2.89,6.89-6.53,6.89c-2.29,0-4.45-1.22-5.33-3.22ZM392.07,201.57c2.91,0,5.15-2.39,5.15-5.54s-2.21-5.54-5.15-5.54-5.17,2.44-5.17,5.54,2.26,5.54,5.17,5.54Z"/>
          <path class="cls-1" d="M400.94,207.63v-1.3c.36.03.7.1,1.27.1,1.12,0,1.87-.34,2.6-2.24l.75-1.95-5.54-12.74h1.79l4.52,10.79,4.21-10.79h1.69l-6.14,15.13c-.88,2.24-1.77,3.07-3.98,3.07-.47,0-.86-.05-1.2-.08Z"/>
          <path class="cls-1" d="M420.7,183.06h1.56v13.68l7.28-7.07h2.03l-5.82,5.62,6.14,7.28h-1.98l-5.2-6.27-2.44,2.34v3.93h-1.56v-19.5Z"/>
          <path class="cls-1" d="M432.94,196.03c0-3.85,2.81-6.89,6.47-6.89,2.37,0,4.47,1.3,5.33,3.17h.03v-2.81h1.56v13.05h-1.51v-2.86h-.03c-.88,2-3.07,3.22-5.36,3.22-3.61,0-6.5-2.99-6.5-6.89ZM439.7,201.57c2.89,0,5.15-2.42,5.15-5.54s-2.21-5.54-5.15-5.54-5.17,2.42-5.17,5.54,2.24,5.54,5.17,5.54Z"/>
          <path class="cls-1" d="M449.56,201.31l8.22-10.53h-8.22v-1.27h9.98v1.3l-8.16,10.48h8.19v1.27h-10.01v-1.25ZM454.55,184.95c.62,0,1.14.55,1.14,1.14s-.52,1.14-1.14,1.14-1.14-.52-1.14-1.14.55-1.14,1.14-1.14Z"/>
          <path class="cls-1" d="M461.72,196.03c0-3.85,2.81-6.89,6.47-6.89,2.37,0,4.47,1.3,5.33,3.17h.03v-9.26h1.56v19.5h-1.51v-2.86h-.03c-.88,2-3.07,3.22-5.36,3.22-3.61,0-6.5-2.99-6.5-6.89ZM468.49,201.57c2.89,0,5.15-2.42,5.15-5.54s-2.21-5.54-5.15-5.54-5.17,2.42-5.17,5.54,2.24,5.54,5.17,5.54Z"/>
          <path class="cls-1" d="M478.73,196.03c0-3.85,2.81-6.89,6.47-6.89,2.37,0,4.47,1.3,5.33,3.17h.03v-2.81h1.56v13.05h-1.51v-2.86h-.03c-.88,2-3.07,3.22-5.36,3.22-3.61,0-6.5-2.99-6.5-6.89ZM485.49,201.57c2.89,0,5.15-2.42,5.15-5.54s-2.21-5.54-5.15-5.54-5.17,2.42-5.17,5.54,2.24,5.54,5.17,5.54Z"/>
          <path class="cls-1" d="M501.35,200.55l.96-.94c.88,1.14,2.13,1.98,3.87,1.98,1.9,0,3.2-.99,3.2-2.47,0-1.77-1.92-2.31-3.54-2.89-2.21-.78-3.67-1.74-3.67-3.61,0-2.03,1.72-3.48,4.26-3.48,1.87,0,3.25.81,4.06,1.79l-.94.99c-.7-.86-1.74-1.46-3.09-1.46-1.53,0-2.7.81-2.7,2.05,0,1.51,1.72,2.03,2.99,2.5,2,.7,4.21,1.56,4.21,4.03,0,2.29-1.95,3.87-4.76,3.87-2.29,0-3.95-1.07-4.86-2.37Z"/>
          <path class="cls-1" d="M513.41,196.06c0-3.87,2.89-6.92,6.73-6.92,2.47,0,4.65,1.27,5.75,3.25l-1.27.78c-.83-1.64-2.5-2.68-4.47-2.68-2.99,0-5.12,2.44-5.12,5.56s2.13,5.51,5.12,5.51c1.98,0,3.64-1.01,4.45-2.65l1.3.78c-1.12,1.98-3.25,3.22-5.75,3.22-3.82,0-6.73-2.96-6.73-6.86Z"/>
          <path class="cls-1" d="M528.26,196.06c0-3.85,2.83-6.92,6.63-6.92,3.38,0,6.47,2.5,6.47,7.25v.26h-11.52c.26,2.99,2.44,4.91,5.07,4.91,1.85,0,3.48-.88,4.37-2.42l1.2.75c-.91,1.51-2.73,3.02-5.51,3.02-3.85,0-6.71-2.96-6.71-6.86ZM539.7,195.43c-.18-2.6-1.85-4.94-4.86-4.94-2.57,0-4.76,1.82-4.99,4.94h9.85Z"/>
          <path class="cls-1" d="M544.92,189.5h1.51v2.08h.05c.81-1.4,2.44-2.42,4.58-2.42,3.2,0,5.07,1.92,5.07,5.56v7.83h-1.56v-7.67c0-2.94-1.4-4.42-3.82-4.42s-4.24,1.64-4.24,4.52v7.57h-1.59v-13.05Z"/>
          <path class="cls-1" d="M559.43,196.03c0-3.85,2.81-6.89,6.47-6.89,2.37,0,4.47,1.3,5.33,3.17h.03v-2.81h1.56v13.05h-1.51v-2.86h-.03c-.88,2-3.07,3.22-5.36,3.22-3.61,0-6.5-2.99-6.5-6.89ZM566.19,201.57c2.89,0,5.15-2.42,5.15-5.54s-2.21-5.54-5.15-5.54-5.17,2.42-5.17,5.54,2.24,5.54,5.17,5.54Z"/>
          <path class="cls-1" d="M585.09,199.7h-.05v2.86h-1.51v-19.5h1.56v9.26h.05c.86-1.87,2.96-3.17,5.3-3.17,3.69,0,6.5,3.04,6.5,6.89s-2.89,6.89-6.53,6.89c-2.29,0-4.45-1.22-5.33-3.22ZM590.19,201.57c2.91,0,5.15-2.39,5.15-5.54s-2.21-5.54-5.15-5.54-5.17,2.44-5.17,5.54,2.26,5.54,5.17,5.54Z"/>
          <path class="cls-1" d="M599.05,207.63v-1.3c.36.03.7.1,1.27.1,1.12,0,1.87-.34,2.6-2.24l.75-1.95-5.54-12.74h1.79l4.52,10.79,4.21-10.79h1.69l-6.14,15.13c-.88,2.24-1.77,3.07-3.98,3.07-.47,0-.86-.05-1.2-.08Z"/>
          <path class="cls-1" d="M611.14,193.79l1.74-1.07v-9.67h1.56v8.74l2.18-1.33v1.43l-2.18,1.33v9.33h-1.56v-8.4l-1.74,1.04v-1.4Z"/>
          <path class="cls-1" d="M618.61,196.03c0-3.85,2.81-6.89,6.47-6.89,2.37,0,4.47,1.3,5.33,3.17h.03v-2.81h1.56v13.05h-1.51v-2.86h-.03c-.88,2-3.07,3.22-5.36,3.22-3.61,0-6.5-2.99-6.5-6.89ZM625.37,201.57c2.89,0,5.15-2.42,5.15-5.54s-2.21-5.54-5.15-5.54-5.17,2.42-5.17,5.54,2.24,5.54,5.17,5.54Z"/>
          <path class="cls-1" d="M261.22,220.7h1.51v2.89h.05c.88-2.03,3.04-3.25,5.33-3.25,3.64,0,6.5,3.02,6.5,6.92s-2.78,6.86-6.47,6.86c-2.34,0-4.47-1.27-5.3-3.15h-.05v7.62h-1.56v-17.89ZM267.87,232.77c2.94,0,5.15-2.42,5.15-5.51s-2.24-5.56-5.15-5.56-5.17,2.42-5.17,5.54,2.21,5.54,5.17,5.54Z"/>
          <path class="cls-1" d="M277.08,227.26c0-3.85,2.83-6.92,6.63-6.92,3.38,0,6.47,2.5,6.47,7.25v.26h-11.52c.26,2.99,2.44,4.91,5.07,4.91,1.85,0,3.48-.88,4.37-2.42l1.2.75c-.91,1.51-2.73,3.02-5.51,3.02-3.85,0-6.71-2.96-6.71-6.86ZM288.52,226.63c-.18-2.6-1.85-4.94-4.86-4.94-2.57,0-4.76,1.82-4.99,4.94h9.85Z"/>
          <path class="cls-1" d="M292.18,224.99l1.74-1.07v-9.67h1.56v8.74l2.18-1.33v1.43l-2.18,1.33v9.33h-1.56v-8.4l-1.74,1.04v-1.4Z"/>
          <path class="cls-1" d="M300.71,220.7h1.51v2.08h.05c.81-1.4,2.44-2.42,4.58-2.42,3.2,0,5.07,1.92,5.07,5.56v7.83h-1.56v-7.67c0-2.94-1.4-4.42-3.82-4.42s-4.24,1.64-4.24,4.52v7.57h-1.59v-13.05Z"/>
          <path class="cls-1" d="M315.22,227.23c0-3.85,2.81-6.89,6.47-6.89,2.37,0,4.47,1.3,5.33,3.17h.03v-2.81h1.56v13.05h-1.51v-2.86h-.03c-.88,2-3.07,3.22-5.36,3.22-3.61,0-6.5-2.99-6.5-6.89ZM321.98,232.77c2.89,0,5.15-2.42,5.15-5.54s-2.21-5.54-5.15-5.54-5.17,2.42-5.17,5.54,2.24,5.54,5.17,5.54Z"/>
          <path class="cls-1" d="M337.89,232.51l8.22-10.53h-8.22v-1.27h9.98v1.3l-8.16,10.48h8.19v1.27h-10.01v-1.25ZM342.88,216.15c.62,0,1.14.55,1.14,1.14s-.52,1.14-1.14,1.14-1.14-.52-1.14-1.14.55-1.14,1.14-1.14Z"/>
          <path class="cls-1" d="M350.03,238.83v-1.3c.36.03.7.1,1.27.1,1.12,0,1.87-.34,2.6-2.24l.75-1.95-5.54-12.74h1.79l4.52,10.79,4.21-10.79h1.69l-6.14,15.13c-.88,2.24-1.77,3.07-3.98,3.07-.47,0-.86-.05-1.2-.08Z"/>
          <path class="cls-1" d="M362.54,227.26c0-3.87,2.89-6.92,6.73-6.92,2.47,0,4.65,1.27,5.75,3.25l-1.27.78c-.83-1.64-2.5-2.68-4.47-2.68-2.99,0-5.12,2.44-5.12,5.56s2.13,5.51,5.12,5.51c1.98,0,3.64-1.01,4.45-2.65l1.3.78c-1.12,1.98-3.25,3.22-5.75,3.22-3.82,0-6.73-2.96-6.73-6.86Z"/>
          <path class="cls-1" d="M379.33,216.49c.6,0,1.12.52,1.12,1.09s-.52,1.09-1.12,1.09-1.12-.49-1.12-1.09.52-1.09,1.12-1.09ZM378.55,220.7h1.56v13.05h-1.56v-13.05Z"/>
          <path class="cls-1" d="M383.65,227.23c0-3.85,2.81-6.89,6.47-6.89,2.37,0,4.47,1.3,5.33,3.17h.03v-2.81h1.56v13.05h-1.51v-2.86h-.03c-.88,2-3.07,3.22-5.36,3.22-3.61,0-6.5-2.99-6.5-6.89ZM390.41,232.77c2.89,0,5.15-2.42,5.15-5.54s-2.21-5.54-5.15-5.54-5.17,2.42-5.17,5.54,2.24,5.54,5.17,5.54Z"/>
          <path class="cls-1" d="M408.48,216.49c.6,0,1.12.52,1.12,1.09s-.52,1.09-1.12,1.09-1.12-.49-1.12-1.09.52-1.09,1.12-1.09ZM407.7,220.7h1.56v13.05h-1.56v-13.05Z"/>
          <path class="cls-1" d="M418.85,227.26c0-3.85,2.83-6.92,6.63-6.92,3.38,0,6.47,2.5,6.47,7.25v.26h-11.52c.26,2.99,2.44,4.91,5.07,4.91,1.85,0,3.48-.88,4.37-2.42l1.2.75c-.91,1.51-2.73,3.02-5.51,3.02-3.85,0-6.71-2.96-6.71-6.86ZM430.29,226.63c-.18-2.6-1.85-4.94-4.86-4.94-2.57,0-4.76,1.82-4.99,4.94h9.85Z"/>
          <path class="cls-1" d="M435.52,220.7h1.51v2.08h.05c.81-1.46,2.31-2.42,4.45-2.42s3.61.94,4.32,2.86c.83-1.74,2.44-2.86,4.71-2.86,3.17,0,4.86,2.03,4.86,5.59v7.8h-1.59v-7.49c0-2.94-1.17-4.6-3.46-4.6-2.42,0-4.06,1.61-4.06,4.37v7.72h-1.56v-7.51c0-2.96-1.3-4.58-3.59-4.58-2.42,0-4.06,1.72-4.06,4.6v7.49h-1.59v-13.05Z"/>
          <path class="cls-1" d="M458.71,227.23c0-3.87,2.91-6.89,6.73-6.89s6.76,3.02,6.76,6.89-2.96,6.89-6.76,6.89-6.73-2.99-6.73-6.89ZM465.47,232.77c2.94,0,5.15-2.42,5.15-5.56s-2.21-5.51-5.15-5.51-5.15,2.42-5.15,5.51,2.16,5.56,5.15,5.56Z"/>
          <path class="cls-1" d="M474.7,227.26c0-3.87,2.89-6.92,6.73-6.92,2.47,0,4.65,1.27,5.75,3.25l-1.27.78c-.83-1.64-2.5-2.68-4.47-2.68-2.99,0-5.12,2.44-5.12,5.56s2.13,5.51,5.12,5.51c1.98,0,3.64-1.01,4.45-2.65l1.3.78c-1.12,1.98-3.25,3.22-5.75,3.22-3.82,0-6.73-2.96-6.73-6.86Z"/>
          <path class="cls-1" d="M488.27,238.83v-1.3c.31.03.75.05,1.01.05,1.27,0,1.79-.55,1.79-2v-14.87h1.56v15.21c0,2-1.07,2.99-3.15,2.99-.39,0-.86-.05-1.22-.08ZM491.81,216.49c.6,0,1.12.52,1.12,1.09s-.52,1.09-1.12,1.09-1.09-.49-1.09-1.09.49-1.09,1.09-1.09Z"/>
          <path class="cls-1" d="M498.18,216.49c.6,0,1.12.52,1.12,1.09s-.52,1.09-1.12,1.09-1.12-.49-1.12-1.09.52-1.09,1.12-1.09ZM497.4,220.7h1.56v13.05h-1.56v-13.05Z"/>
          <path class="cls-1" d="M502.88,232.66c0-.75.6-1.38,1.35-1.38s1.35.62,1.35,1.38-.6,1.33-1.35,1.33-1.35-.6-1.35-1.33Z"/>
        </g>
      </g>
    </g>
  </g>
</svg>