<?xml version="1.0" encoding="UTF-8"?>
<svg xmlns="http://www.w3.org/2000/svg" xmlns:xlink="http://www.w3.org/1999/xlink" viewBox="0 0 809.07 307.24">
  <defs>
    <style>
      .cls-1 {
        fill: #e8e9f3;
      }

      .cls-2 {
        fill: none;
        stroke: #6ad2ed;
        stroke-miterlimit: 10;
        stroke-width: 3px;
      }

      .cls-3 {
        fill: #ffc52e;
      }
    </style>
  </defs>
  <g id="_1" data-name="1">
    <image width="1080" height="1920" transform="translate(29.62 -16.29) rotate(173.78) scale(.62)" xlink:href="../../../../Downloads/Comp 1/Comp 1_00100.png"/>
  </g>
  <g id="_2" data-name="2">
    <g>
      <g id="RAMKA-2" data-name="RAMKA">
        <rect class="cls-2" x="78.45" y="49.82" width="609.22" height="228.01" rx="32.03" ry="32.03"/>
      </g>
      <g>
        <path class="cls-3" d="M226.17,65.66l7.88,12.54h1.7l7.88-12.54h10.1v24.79h-6.55v-18.65h-1.26l-7.77,12.4h-7.47l-7.66-12.4h-1.3v18.65h-6.22v-24.79h10.66Z"/>
        <path class="cls-3" d="M276.09,65.32c8.88,0,15.95,4.37,15.95,12.14v1.18c0,7.84-7.07,12.14-15.95,12.14h-1.78c-9.07,0-16.28-4.29-16.28-12.14v-1.18c0-7.77,7.21-12.14,16.28-12.14h1.78ZM264.73,77.46v1.18c0,4.26,3.74,6.55,9.58,6.55h1.48c5.85,0,9.58-2.29,9.58-6.55v-1.18c0-4.22-3.74-6.55-9.58-6.55h-1.48c-5.85,0-9.58,2.33-9.58,6.55Z"/>
        <path class="cls-3" d="M304.91,65.66l15.13,16.98h.92v-16.98h6.22v24.79h-8.51l-15.13-16.98h-.96v16.98h-6.22v-24.79h8.55Z"/>
        <path class="cls-3" d="M361.85,65.66v5.29h-12.43v19.5h-6.55v-19.5h-12.43v-5.29h31.42Z"/>
        <path class="cls-3" d="M381.24,65.66l12.91,24.79h-6.55l-2.89-5.55h-16.84l-2.89,5.55h-6.33l12.88-24.79h9.69ZM370.47,79.9h11.66l-5.07-9.69h-1.59l-5,9.69Z"/>
        <path class="cls-3" d="M423.94,65.66v8.21l-20.31,10.51v.78h20.65v5.29h-27.83v-8.21l20.35-10.51v-.78h-20.02v-5.29h27.16ZM413.39,60.77c0,1.37-1,2.48-2.77,2.48s-2.78-1.11-2.78-2.48.96-2.52,2.78-2.52,2.77,1.11,2.77,2.52Z"/>
        <path class="cls-3" d="M433.85,65.66l9.58,9.62h1.48l8.88-9.62h6.99l-13.58,14.76v10.03h-6.51v-10.03l-14.5-14.76h7.66Z"/>
        <path class="cls-3" d="M475.77,65.32c8.47,0,13.91,2.63,13.91,8.47v.7h-6.18v-.7c0-2.89-3.18-3.63-7.73-3.63h-1.11c-4.77,0-7.77.74-7.77,2.37v.33c0,1.92,2.07,2.18,10.66,2.85,9.14.74,12.65,2.85,12.65,7.18v.44c0,4.63-4.96,7.44-14.17,7.44h-1.11c-9.66,0-14.65-2.81-14.65-8.66v-.74h6.22v.74c0,3.11,3.03,3.81,8.44,3.81h1.11c4.92,0,7.92-.7,7.92-2.44v-.44c0-1.81-2.52-2.26-10.55-2.81-8.44-.59-12.8-2.44-12.8-7.07v-.3c0-4.92,5.48-7.55,14.06-7.55h1.11Z"/>
        <path class="cls-3" d="M523.14,65.66v5.29h-12.43v19.5h-6.55v-19.5h-12.43v-5.29h31.42Z"/>
        <path class="cls-3" d="M542.52,65.66l12.91,24.79h-6.55l-2.89-5.55h-16.84l-2.89,5.55h-6.33l12.88-24.79h9.69ZM531.75,79.9h11.66l-5.07-9.69h-1.59l-5,9.69Z"/>
      </g>
      <g>
        <path class="cls-1" d="M132.5,109.4h1.98l8.74,13.49c.6.96,1.12,1.87,1.43,2.42l.03-.03c-.1-.86-.08-1.98-.08-3.46v-12.43h1.53v17.94h-1.98l-8.74-13.49c-.6-.96-1.12-1.87-1.43-2.42l-.03.03c.1.86.08,1.98.08,3.46v12.43h-1.53v-17.94Z"/>
        <path class="cls-1" d="M149.71,120.81c0-3.85,2.81-6.89,6.47-6.89,2.37,0,4.47,1.3,5.33,3.17h.03v-2.81h1.56v13.05h-1.51v-2.86h-.03c-.88,2-3.07,3.22-5.36,3.22-3.61,0-6.5-2.99-6.5-6.89ZM156.47,126.35c2.89,0,5.15-2.42,5.15-5.54s-2.21-5.54-5.15-5.54-5.17,2.42-5.17,5.54,2.24,5.54,5.17,5.54Z"/>
        <path class="cls-1" d="M168.2,130.35l1.01-.88c.94,1.14,2.52,1.79,4.42,1.79,3.07,0,4.89-1.69,4.89-4.6v-2.21h-.03c-.86,1.95-2.99,3.25-5.33,3.25-3.69,0-6.53-3.04-6.53-6.92s2.83-6.86,6.47-6.86c2.29,0,4.45,1.22,5.33,3.15h.03v-2.78h1.56v12.17c0,3.85-2.24,6.03-6.32,6.03-2.44,0-4.45-.75-5.51-2.13ZM173.4,126.35c2.94,0,5.15-2.42,5.15-5.51s-2.26-5.56-5.15-5.56-5.17,2.39-5.17,5.56,2.21,5.51,5.17,5.51Z"/>
        <path class="cls-1" d="M184.63,114.28h1.51v2.5h.05c.65-1.82,1.9-2.86,3.69-2.86.29,0,.7.03,1.07.13v1.48c-.34-.1-.75-.18-1.22-.18-2.39,0-3.54,2.13-3.54,4.65v7.33h-1.56v-13.05Z"/>
        <path class="cls-1" d="M192.87,120.81c0-3.85,2.81-6.89,6.47-6.89,2.37,0,4.47,1.3,5.33,3.17h.03v-2.81h1.56v13.05h-1.51v-2.86h-.03c-.88,2-3.07,3.22-5.36,3.22-3.61,0-6.5-2.99-6.5-6.89ZM199.63,126.35c2.89,0,5.15-2.42,5.15-5.54s-2.21-5.54-5.15-5.54-5.17,2.42-5.17,5.54,2.24,5.54,5.17,5.54Z"/>
        <path class="cls-1" d="M210.86,114.28h1.51v2.08h.05c.81-1.4,2.44-2.42,4.58-2.42,3.2,0,5.07,1.92,5.07,5.56v7.83h-1.56v-7.67c0-2.94-1.4-4.42-3.82-4.42s-4.24,1.64-4.24,4.52v7.57h-1.59v-13.05Z"/>
        <path class="cls-1" d="M227.22,110.07c.6,0,1.12.52,1.12,1.09s-.52,1.09-1.12,1.09-1.12-.49-1.12-1.09.52-1.09,1.12-1.09ZM226.44,114.28h1.56v13.05h-1.56v-13.05Z"/>
        <path class="cls-1" d="M231.53,120.81c0-3.85,2.81-6.89,6.47-6.89,2.37,0,4.47,1.3,5.33,3.17h.03v-2.81h1.56v13.05h-1.51v-2.86h-.03c-.88,2-3.07,3.22-5.36,3.22-3.61,0-6.5-2.99-6.5-6.89ZM238.29,126.35c2.89,0,5.15-2.42,5.15-5.54s-2.21-5.54-5.15-5.54-5.17,2.42-5.17,5.54,2.24,5.54,5.17,5.54Z"/>
        <path class="cls-1" d="M256.36,124.61v-9.05h-2.34v-1.27h2.34v-3.2h1.56v3.2h3.35v1.27h-3.35v8.76c0,1.4.49,1.92,1.74,1.92.6,0,1.27-.13,1.61-.21v1.33c-.44.08-1.33.18-1.92.18-1.56,0-2.99-.65-2.99-2.94Z"/>
        <path class="cls-1" d="M263.43,120.81c0-3.87,2.91-6.89,6.73-6.89s6.76,3.02,6.76,6.89-2.96,6.89-6.76,6.89-6.73-2.99-6.73-6.89ZM270.19,126.35c2.94,0,5.15-2.42,5.15-5.56s-2.21-5.51-5.15-5.51-5.15,2.42-5.15,5.51,2.16,5.56,5.15,5.56Z"/>
        <path class="cls-1" d="M285.48,120.81c0-3.85,2.81-6.89,6.47-6.89,2.37,0,4.47,1.3,5.33,3.17h.03v-9.26h1.56v19.5h-1.51v-2.86h-.03c-.88,2-3.07,3.22-5.36,3.22-3.61,0-6.5-2.99-6.5-6.89ZM292.24,126.35c2.89,0,5.15-2.42,5.15-5.54s-2.21-5.54-5.15-5.54-5.17,2.42-5.17,5.54,2.24,5.54,5.17,5.54Z"/>
        <path class="cls-1" d="M302.49,120.81c0-3.87,2.91-6.89,6.73-6.89s6.76,3.02,6.76,6.89-2.96,6.89-6.76,6.89-6.73-2.99-6.73-6.89ZM309.24,126.35c2.94,0,5.15-2.42,5.15-5.56s-2.21-5.51-5.15-5.51-5.15,2.42-5.15,5.51,2.16,5.56,5.15,5.56Z"/>
        <path class="cls-1" d="M319.54,114.28h1.51v2.89h.05c.88-2.03,3.04-3.25,5.33-3.25,3.64,0,6.5,3.02,6.5,6.92s-2.78,6.86-6.47,6.86c-2.34,0-4.47-1.27-5.3-3.15h-.05v7.62h-1.56v-17.89ZM326.2,126.35c2.94,0,5.15-2.42,5.15-5.51s-2.24-5.56-5.15-5.56-5.17,2.42-5.17,5.54,2.21,5.54,5.17,5.54Z"/>
        <path class="cls-1" d="M337.25,110.07c.6,0,1.12.52,1.12,1.09s-.52,1.09-1.12,1.09-1.12-.49-1.12-1.09.52-1.09,1.12-1.09ZM336.47,114.28h1.56v13.05h-1.56v-13.05Z"/>
        <path class="cls-1" d="M341.56,120.84c0-3.85,2.83-6.92,6.63-6.92,3.38,0,6.47,2.5,6.47,7.25v.26h-11.52c.26,2.99,2.45,4.91,5.07,4.91,1.85,0,3.48-.88,4.37-2.42l1.2.75c-.91,1.51-2.73,3.02-5.51,3.02-3.85,0-6.71-2.96-6.71-6.86ZM353,120.21c-.18-2.6-1.85-4.94-4.86-4.94-2.57,0-4.76,1.82-4.99,4.94h9.86Z"/>
        <path class="cls-1" d="M358.23,114.28h1.51v2.5h.05c.65-1.82,1.9-2.86,3.69-2.86.29,0,.7.03,1.07.13v1.48c-.34-.1-.75-.18-1.22-.18-2.39,0-3.54,2.13-3.54,4.65v7.33h-1.56v-13.05Z"/>
        <path class="cls-1" d="M366.47,120.81c0-3.87,2.91-6.89,6.73-6.89s6.76,3.02,6.76,6.89-2.96,6.89-6.76,6.89-6.73-2.99-6.73-6.89ZM373.23,126.35c2.94,0,5.15-2.42,5.15-5.56s-2.21-5.51-5.15-5.51-5.15,2.42-5.15,5.51,2.16,5.56,5.15,5.56Z"/>
        <path class="cls-1" d="M389.58,114.28h1.51v2.89h.05c.88-2.03,3.04-3.25,5.33-3.25,3.64,0,6.5,3.02,6.5,6.92s-2.78,6.86-6.47,6.86c-2.34,0-4.47-1.27-5.3-3.15h-.05v7.62h-1.56v-17.89ZM396.24,126.35c2.94,0,5.15-2.42,5.15-5.51s-2.24-5.56-5.15-5.56-5.17,2.42-5.17,5.54,2.21,5.54,5.17,5.54Z"/>
        <path class="cls-1" d="M405.44,120.81c0-3.87,2.91-6.89,6.73-6.89s6.76,3.02,6.76,6.89-2.96,6.89-6.76,6.89-6.73-2.99-6.73-6.89ZM412.2,126.35c2.94,0,5.15-2.42,5.15-5.56s-2.21-5.51-5.15-5.51-5.15,2.42-5.15,5.51,2.16,5.56,5.15,5.56Z"/>
        <path class="cls-1" d="M421.43,120.84c0-3.87,2.89-6.92,6.73-6.92,2.47,0,4.65,1.27,5.75,3.25l-1.27.78c-.83-1.64-2.5-2.68-4.47-2.68-2.99,0-5.12,2.44-5.12,5.56s2.13,5.51,5.12,5.51c1.98,0,3.64-1.01,4.45-2.65l1.3.78c-1.12,1.98-3.25,3.22-5.75,3.22-3.82,0-6.73-2.96-6.73-6.86Z"/>
        <path class="cls-1" d="M436.07,126.09l8.22-10.53h-8.22v-1.27h9.98v1.3l-8.17,10.48h8.19v1.27h-10.01v-1.25Z"/>
        <path class="cls-1" d="M448.24,120.81c0-3.85,2.81-6.89,6.47-6.89,2.37,0,4.47,1.3,5.33,3.17h.03v-2.81h1.56v13.03l.05.03c-.96.6-1.98,1.46-1.98,2.52,0,.88.57,1.33,1.51,1.33.44,0,1.01-.13,1.43-.29v.99c-.34.13-.96.34-1.77.34-1.48,0-2.52-.81-2.52-2.13,0-1.22,1.07-2.21,2.11-2.76h-.34v-2.86h-.03c-.88,2-3.07,3.22-5.36,3.22-3.62,0-6.5-2.99-6.5-6.89ZM455,126.35c2.89,0,5.15-2.42,5.15-5.54s-2.21-5.54-5.15-5.54-5.17,2.42-5.17,5.54,2.24,5.54,5.17,5.54Z"/>
        <path class="cls-1" d="M467.01,124.61v-9.05h-2.34v-1.27h2.34v-3.2h1.56v3.2h3.35v1.27h-3.35v8.76c0,1.4.49,1.92,1.74,1.92.6,0,1.28-.13,1.61-.21v1.33c-.44.08-1.33.18-1.92.18-1.56,0-2.99-.65-2.99-2.94Z"/>
        <path class="cls-1" d="M474.08,120.84c0-3.85,2.83-6.92,6.63-6.92,3.38,0,6.47,2.5,6.47,7.25v.26h-11.52c.26,2.99,2.45,4.91,5.07,4.91,1.85,0,3.48-.88,4.37-2.42l1.2.75c-.91,1.51-2.73,3.02-5.51,3.02-3.85,0-6.71-2.96-6.71-6.86ZM485.52,120.21c-.18-2.6-1.85-4.94-4.86-4.94-2.57,0-4.76,1.82-4.99,4.94h9.86Z"/>
        <path class="cls-1" d="M490.8,107.84h1.56v13.68l7.28-7.07h2.03l-5.82,5.62,6.14,7.28h-1.98l-5.2-6.27-2.44,2.34v3.93h-1.56v-19.5Z"/>
        <path class="cls-1" d="M510.38,122.71v-8.42h1.59v8.32c0,2.26,1.59,3.74,4,3.74s4.06-1.46,4.06-3.74v-8.32h1.56v8.42c0,2.86-2.13,4.99-5.62,4.99s-5.59-2.13-5.59-4.99Z"/>
        <path class="cls-1" d="M526,107.84h1.56v13.68l7.28-7.07h2.03l-5.82,5.62,6.14,7.28h-1.98l-5.2-6.27-2.44,2.34v3.93h-1.56v-19.5Z"/>
        <path class="cls-1" d="M538.2,118.57l1.74-1.07v-9.67h1.56v8.74l2.18-1.33v1.43l-2.18,1.33v9.33h-1.56v-8.4l-1.74,1.04v-1.4Z"/>
        <path class="cls-1" d="M545.66,120.81c0-3.85,2.81-6.89,6.47-6.89,2.37,0,4.47,1.3,5.33,3.17h.03v-2.81h1.56v13.05h-1.51v-2.86h-.03c-.88,2-3.07,3.22-5.36,3.22-3.62,0-6.5-2.99-6.5-6.89ZM552.42,126.35c2.89,0,5.15-2.42,5.15-5.54s-2.21-5.54-5.15-5.54-5.17,2.42-5.17,5.54,2.24,5.54,5.17,5.54Z"/>
        <path class="cls-1" d="M562.58,120.81c0-3.85,2.81-6.89,6.47-6.89,2.37,0,4.47,1.3,5.33,3.17h.03v-9.26h1.56v19.5h-1.51v-2.86h-.03c-.88,2-3.07,3.22-5.36,3.22-3.62,0-6.5-2.99-6.5-6.89ZM569.34,126.35c2.89,0,5.15-2.42,5.15-5.54s-2.21-5.54-5.15-5.54-5.17,2.42-5.17,5.54,2.24,5.54,5.17,5.54Z"/>
        <path class="cls-1" d="M579.59,120.81c0-3.85,2.81-6.89,6.47-6.89,2.37,0,4.47,1.3,5.33,3.17h.03v-2.81h1.56v13.05h-1.51v-2.86h-.03c-.88,2-3.07,3.22-5.36,3.22-3.62,0-6.5-2.99-6.5-6.89ZM586.35,126.35c2.89,0,5.15-2.42,5.15-5.54s-2.21-5.54-5.15-5.54-5.17,2.42-5.17,5.54,2.24,5.54,5.17,5.54Z"/>
        <path class="cls-1" d="M597.58,114.28h1.51v2.08h.05c.81-1.4,2.44-2.42,4.58-2.42,3.2,0,5.07,1.92,5.07,5.56v7.83h-1.56v-7.67c0-2.94-1.4-4.42-3.82-4.42s-4.24,1.64-4.24,4.52v7.57h-1.59v-13.05Z"/>
        <path class="cls-1" d="M613.21,107.84h1.56v13.68l7.28-7.07h2.03l-5.82,5.62,6.14,7.28h-1.98l-5.2-6.27-2.44,2.34v3.93h-1.56v-19.5Z"/>
        <path class="cls-1" d="M627.74,110.07c.6,0,1.12.52,1.12,1.09s-.52,1.09-1.12,1.09-1.12-.49-1.12-1.09.52-1.09,1.12-1.09ZM626.96,114.28h1.56v13.05h-1.56v-13.05Z"/>
        <path class="cls-1" d="M632.44,126.24c0-.75.6-1.38,1.35-1.38s1.35.62,1.35,1.38-.6,1.33-1.35,1.33-1.35-.6-1.35-1.33Z"/>
        <path class="cls-1" d="M201.53,140.6h2.26l5.04,11.08c.16.34.86,1.92,1.04,2.5h.03c.18-.57.88-2.16,1.04-2.5l5.04-11.08h2.26v17.94h-1.53v-13.78c0-.39,0-1.66.03-2.24h-.03c-.23.55-.7,1.56-.91,2.03l-5.15,11.18h-1.53l-5.15-11.18c-.21-.47-.68-1.48-.91-2.03h-.03c.03.57.03,1.85.03,2.24v13.78h-1.54v-17.94Z"/>
        <path class="cls-1" d="M221.83,152.01c0-3.87,2.91-6.89,6.73-6.89s6.76,3.02,6.76,6.89-2.96,6.89-6.76,6.89-6.73-2.99-6.73-6.89ZM228.59,157.55c2.94,0,5.15-2.42,5.15-5.56s-2.21-5.51-5.15-5.51-5.15,2.42-5.15,5.51,2.16,5.56,5.15,5.56Z"/>
        <path class="cls-1" d="M238.89,145.48h1.51v2.08h.05c.81-1.4,2.44-2.42,4.58-2.42,3.2,0,5.07,1.92,5.07,5.56v7.83h-1.56v-7.67c0-2.94-1.4-4.42-3.82-4.42s-4.24,1.64-4.24,4.52v7.57h-1.59v-13.05Z"/>
        <path class="cls-1" d="M255.24,155.81v-9.05h-2.34v-1.27h2.34v-3.2h1.56v3.2h3.35v1.27h-3.35v8.76c0,1.4.49,1.92,1.74,1.92.6,0,1.27-.13,1.61-.21v1.33c-.44.08-1.33.18-1.92.18-1.56,0-2.99-.65-2.99-2.94Z"/>
        <path class="cls-1" d="M262.32,152.01c0-3.85,2.81-6.89,6.47-6.89,2.37,0,4.47,1.3,5.33,3.17h.03v-2.81h1.56v13.05h-1.51v-2.86h-.03c-.88,2-3.07,3.22-5.36,3.22-3.61,0-6.5-2.99-6.5-6.89ZM269.08,157.55c2.89,0,5.15-2.42,5.15-5.54s-2.21-5.54-5.15-5.54-5.17,2.42-5.17,5.54,2.24,5.54,5.17,5.54Z"/>
        <path class="cls-1" d="M278.93,157.29l8.22-10.53h-8.22v-1.27h9.98v1.3l-8.17,10.48h8.19v1.27h-10.01v-1.25ZM283.92,140.93c.62,0,1.14.55,1.14,1.14s-.52,1.14-1.14,1.14-1.14-.52-1.14-1.14.54-1.14,1.14-1.14Z"/>
        <path class="cls-1" d="M299.26,155.81v-9.05h-2.34v-1.27h2.34v-3.2h1.56v3.2h3.35v1.27h-3.35v8.76c0,1.4.49,1.92,1.74,1.92.6,0,1.27-.13,1.61-.21v1.33c-.44.08-1.33.18-1.92.18-1.56,0-2.99-.65-2.99-2.94Z"/>
        <path class="cls-1" d="M305.5,145.48h1.74l3.2,11.75,3.67-11.75h1.79l3.59,11.75,3.38-11.75h1.64l-3.98,13.05h-2.11l-3.43-11.39-3.51,11.39h-2.11l-3.87-13.05Z"/>
        <path class="cls-1" d="M326.07,152.01c0-3.87,2.91-6.89,6.73-6.89s6.76,3.02,6.76,6.89-2.96,6.89-6.76,6.89-6.73-2.99-6.73-6.89ZM332.83,157.55c2.94,0,5.15-2.42,5.15-5.56s-2.21-5.51-5.15-5.51-5.15,2.42-5.15,5.51,2.16,5.56,5.15,5.56Z"/>
        <path class="cls-1" d="M343.12,145.48h1.51v2.5h.05c.65-1.82,1.9-2.86,3.69-2.86.29,0,.7.03,1.07.13v1.48c-.34-.1-.75-.18-1.22-.18-2.39,0-3.54,2.13-3.54,4.65v7.33h-1.56v-13.05Z"/>
        <path class="cls-1" d="M351.36,157.29l8.22-10.53h-8.22v-1.27h9.98v1.3l-8.16,10.48h8.19v1.27h-10.01v-1.25Z"/>
        <path class="cls-1" d="M363.51,163.61v-1.3c.36.03.7.1,1.27.1,1.12,0,1.87-.34,2.6-2.24l.75-1.95-5.54-12.74h1.79l4.52,10.79,4.21-10.79h1.69l-6.14,15.13c-.88,2.24-1.77,3.07-3.98,3.07-.47,0-.86-.05-1.2-.08Z"/>
        <path class="cls-1" d="M383.21,145.48h1.51v2.89h.05c.88-2.03,3.04-3.25,5.33-3.25,3.64,0,6.5,3.02,6.5,6.92s-2.78,6.86-6.47,6.86c-2.34,0-4.47-1.27-5.3-3.15h-.05v7.62h-1.56v-17.89ZM389.87,157.55c2.94,0,5.15-2.42,5.15-5.51s-2.24-5.56-5.15-5.56-5.17,2.42-5.17,5.54,2.21,5.54,5.17,5.54Z"/>
        <path class="cls-1" d="M400.14,145.48h1.51v2.5h.05c.65-1.82,1.9-2.86,3.69-2.86.29,0,.7.03,1.07.13v1.48c-.34-.1-.75-.18-1.22-.18-2.39,0-3.54,2.13-3.54,4.65v7.33h-1.56v-13.05Z"/>
        <path class="cls-1" d="M408.38,152.01c0-3.85,2.81-6.89,6.47-6.89,2.37,0,4.47,1.3,5.33,3.17h.03v-2.81h1.56v13.05h-1.51v-2.86h-.03c-.88,2-3.07,3.22-5.36,3.22-3.61,0-6.5-2.99-6.5-6.89ZM415.14,157.55c2.89,0,5.15-2.42,5.15-5.54s-2.21-5.54-5.15-5.54-5.17,2.42-5.17,5.54,2.24,5.54,5.17,5.54Z"/>
        <path class="cls-1" d="M424.47,145.48h1.74l3.2,11.75,3.67-11.75h1.79l3.59,11.75,3.38-11.75h1.64l-3.98,13.05h-2.11l-3.43-11.39-3.51,11.39h-2.11l-3.87-13.05Z"/>
        <path class="cls-1" d="M445.04,152.01c0-3.85,2.81-6.89,6.47-6.89,2.37,0,4.47,1.3,5.33,3.17h.03v-9.26h1.56v19.5h-1.51v-2.86h-.03c-.88,2-3.07,3.22-5.36,3.22-3.62,0-6.5-2.99-6.5-6.89ZM451.8,157.55c2.89,0,5.15-2.42,5.15-5.54s-2.21-5.54-5.15-5.54-5.17,2.42-5.17,5.54,2.24,5.54,5.17,5.54Z"/>
        <path class="cls-1" d="M461.73,157.29l8.22-10.53h-8.22v-1.27h9.98v1.3l-8.17,10.48h8.19v1.27h-10.01v-1.25Z"/>
        <path class="cls-1" d="M476.01,141.27c.6,0,1.12.52,1.12,1.09s-.52,1.09-1.12,1.09-1.12-.49-1.12-1.09.52-1.09,1.12-1.09ZM475.23,145.48h1.56v13.05h-1.56v-13.05Z"/>
        <path class="cls-1" d="M479.49,145.48h1.74l3.2,11.75,3.67-11.75h1.79l3.59,11.75,3.38-11.75h1.64l-3.98,13.05h-2.11l-3.43-11.39-3.51,11.39h-2.11l-3.88-13.05Z"/>
        <path class="cls-1" d="M499.85,163.61v-1.3c.36.03.7.1,1.27.1,1.12,0,1.87-.34,2.6-2.24l.75-1.95-5.54-12.74h1.79l4.52,10.79,4.21-10.79h1.69l-6.14,15.13c-.88,2.24-1.77,3.07-3.98,3.07-.47,0-.86-.05-1.2-.08Z"/>
        <path class="cls-1" d="M520.57,146.76h-2.34v-1.27h2.34v-3.61c0-1.92,1.07-2.99,2.91-2.99.52,0,1.17.05,1.56.08v1.33c-.31-.03-.78-.08-1.09-.08-1.33,0-1.79.52-1.79,1.85v3.43h2.89v1.27h-2.89v11.78h-1.59v-11.78ZM528.4,141.27c.6,0,1.12.52,1.12,1.09s-.52,1.09-1.12,1.09-1.12-.49-1.12-1.09.52-1.09,1.12-1.09ZM527.62,145.48h1.56v13.05h-1.56v-13.05Z"/>
        <path class="cls-1" d="M533.93,139.04h1.56v19.5h-1.56v-19.5Z"/>
        <path class="cls-1" d="M540.17,145.48h1.51v2.08h.05c.81-1.46,2.31-2.42,4.45-2.42s3.62.94,4.32,2.86c.83-1.74,2.44-2.86,4.71-2.86,3.17,0,4.86,2.03,4.86,5.59v7.8h-1.59v-7.49c0-2.94-1.17-4.6-3.46-4.6-2.42,0-4.06,1.61-4.06,4.37v7.72h-1.56v-7.51c0-2.96-1.3-4.58-3.59-4.58-2.42,0-4.06,1.72-4.06,4.6v7.49h-1.59v-13.05Z"/>
        <path class="cls-1" d="M563.47,157.44c0-.73.57-1.33,1.3-1.33.78,0,1.38.6,1.38,1.33,0,.26-.13.65-.23.86l-1.48,2.76h-1.12l1.04-2.34c-.52-.16-.88-.65-.88-1.27Z"/>
        <path class="cls-1" d="M165.51,176.68h1.74l3.2,11.75,3.67-11.75h1.79l3.59,11.75,3.38-11.75h1.64l-3.98,13.05h-2.11l-3.43-11.39-3.51,11.39h-2.11l-3.87-13.05Z"/>
        <path class="cls-1" d="M193.32,170.24h1.56v13.68l7.28-7.07h2.03l-5.82,5.62,6.14,7.28h-1.98l-5.2-6.27-2.44,2.34v3.93h-1.56v-19.5Z"/>
        <path class="cls-1" d="M207.86,187.01v-9.05h-2.34v-1.27h2.34v-3.2h1.56v3.2h3.35v1.27h-3.35v8.76c0,1.4.49,1.92,1.74,1.92.6,0,1.27-.13,1.61-.21v1.33c-.44.08-1.33.18-1.92.18-1.56,0-2.99-.65-2.99-2.94Z"/>
        <path class="cls-1" d="M214.93,183.21c0-3.87,2.91-6.89,6.73-6.89s6.76,3.02,6.76,6.89-2.96,6.89-6.76,6.89-6.73-2.99-6.73-6.89ZM221.69,188.75c2.94,0,5.15-2.42,5.15-5.56s-2.21-5.51-5.15-5.51-5.15,2.42-5.15,5.51,2.16,5.56,5.15,5.56ZM221.51,170.73h1.79l-1.98,4.13h-1.27l1.46-4.13Z"/>
        <path class="cls-1" d="M231.99,176.68h1.51v2.5h.05c.65-1.82,1.9-2.86,3.69-2.86.29,0,.7.03,1.07.13v1.48c-.34-.1-.75-.18-1.22-.18-2.39,0-3.54,2.13-3.54,4.65v7.33h-1.56v-13.05Z"/>
        <path class="cls-1" d="M240.25,194.81v-1.3c.36.03.7.1,1.27.1,1.12,0,1.87-.34,2.6-2.24l.75-1.95-5.54-12.74h1.79l4.52,10.79,4.21-10.79h1.69l-6.14,15.13c-.88,2.24-1.77,3.07-3.98,3.07-.47,0-.86-.05-1.2-.08Z"/>
        <path class="cls-1" d="M253.9,176.68h1.51v2.08h.05c.81-1.46,2.31-2.42,4.45-2.42s3.61.94,4.32,2.86c.83-1.74,2.44-2.86,4.71-2.86,3.17,0,4.86,2.03,4.86,5.59v7.8h-1.59v-7.49c0-2.94-1.17-4.6-3.46-4.6-2.42,0-4.06,1.61-4.06,4.37v7.72h-1.56v-7.51c0-2.96-1.3-4.58-3.59-4.58-2.42,0-4.05,1.72-4.05,4.6v7.49h-1.59v-13.05Z"/>
        <path class="cls-1" d="M284.27,170.24h1.56v13.68l7.28-7.07h2.03l-5.82,5.62,6.14,7.28h-1.98l-5.2-6.27-2.44,2.34v3.93h-1.56v-19.5Z"/>
        <path class="cls-1" d="M296.52,183.21c0-3.85,2.81-6.89,6.47-6.89,2.37,0,4.47,1.3,5.33,3.17h.03v-2.81h1.56v13.05h-1.51v-2.86h-.03c-.88,2-3.07,3.22-5.36,3.22-3.62,0-6.5-2.99-6.5-6.89ZM303.28,188.75c2.89,0,5.15-2.42,5.15-5.54s-2.21-5.54-5.15-5.54-5.17,2.42-5.17,5.54,2.24,5.54,5.17,5.54Z"/>
        <path class="cls-1" d="M313.13,188.49l8.22-10.53h-8.22v-1.27h9.98v1.3l-8.16,10.48h8.19v1.27h-10.01v-1.25ZM318.12,172.13c.62,0,1.14.55,1.14,1.14s-.52,1.14-1.14,1.14-1.14-.52-1.14-1.14.55-1.14,1.14-1.14Z"/>
        <path class="cls-1" d="M325.3,183.21c0-3.85,2.81-6.89,6.47-6.89,2.37,0,4.47,1.3,5.33,3.17h.03v-9.26h1.56v19.5h-1.51v-2.86h-.03c-.88,2-3.07,3.22-5.36,3.22-3.61,0-6.5-2.99-6.5-6.89ZM332.06,188.75c2.89,0,5.15-2.42,5.15-5.54s-2.21-5.54-5.15-5.54-5.17,2.42-5.17,5.54,2.24,5.54,5.17,5.54Z"/>
        <path class="cls-1" d="M342.02,194.81v-1.3c.37.03.7.1,1.28.1,1.12,0,1.87-.34,2.6-2.24l.75-1.95-5.54-12.74h1.79l4.52,10.79,4.21-10.79h1.69l-6.14,15.13c-.88,2.24-1.77,3.07-3.98,3.07-.47,0-.86-.05-1.2-.08Z"/>
        <path class="cls-1" d="M361.78,170.24h1.56v13.68l7.28-7.07h2.03l-5.82,5.62,6.14,7.28h-1.98l-5.2-6.27-2.44,2.34v3.93h-1.56v-19.5Z"/>
        <path class="cls-1" d="M374.02,183.21c0-3.85,2.81-6.89,6.47-6.89,2.37,0,4.47,1.3,5.33,3.17h.03v-2.81h1.56v13.05h-1.51v-2.86h-.03c-.88,2-3.07,3.22-5.36,3.22-3.61,0-6.5-2.99-6.5-6.89ZM380.78,188.75c2.89,0,5.15-2.42,5.15-5.54s-2.21-5.54-5.15-5.54-5.17,2.42-5.17,5.54,2.24,5.54,5.17,5.54Z"/>
        <path class="cls-1" d="M390.95,183.21c0-3.85,2.81-6.89,6.47-6.89,2.37,0,4.47,1.3,5.33,3.17h.03v-9.26h1.56v19.5h-1.51v-2.86h-.03c-.88,2-3.07,3.22-5.36,3.22-3.61,0-6.5-2.99-6.5-6.89ZM397.71,188.75c2.89,0,5.15-2.42,5.15-5.54s-2.21-5.54-5.15-5.54-5.17,2.42-5.17,5.54,2.24,5.54,5.17,5.54Z"/>
        <path class="cls-1" d="M409.02,176.68h1.51v2.5h.05c.65-1.82,1.9-2.86,3.69-2.86.29,0,.7.03,1.07.13v1.48c-.34-.1-.75-.18-1.22-.18-2.39,0-3.54,2.13-3.54,4.65v7.33h-1.56v-13.05Z"/>
        <path class="cls-1" d="M424.69,176.68h1.51v2.08h.05c.81-1.4,2.45-2.42,4.58-2.42,3.2,0,5.07,1.92,5.07,5.56v7.83h-1.56v-7.67c0-2.94-1.4-4.42-3.82-4.42s-4.24,1.64-4.24,4.52v7.57h-1.59v-13.05Z"/>
        <path class="cls-1" d="M439.2,183.21c0-3.85,2.81-6.89,6.47-6.89,2.37,0,4.47,1.3,5.33,3.17h.03v-2.81h1.56v13.05h-1.51v-2.86h-.03c-.88,2-3.07,3.22-5.36,3.22-3.62,0-6.5-2.99-6.5-6.89ZM445.96,188.75c2.89,0,5.15-2.42,5.15-5.54s-2.21-5.54-5.15-5.54-5.17,2.42-5.17,5.54,2.24,5.54,5.17,5.54Z"/>
        <path class="cls-1" d="M458.81,186.88h-.05v2.86h-1.51v-19.5h1.56v9.26h.05c.86-1.87,2.96-3.17,5.3-3.17,3.69,0,6.5,3.04,6.5,6.89s-2.89,6.89-6.53,6.89c-2.29,0-4.45-1.22-5.33-3.22ZM463.9,188.75c2.91,0,5.15-2.39,5.15-5.54s-2.21-5.54-5.15-5.54-5.17,2.44-5.17,5.54,2.26,5.54,5.17,5.54Z"/>
        <path class="cls-1" d="M474.98,172.47c.6,0,1.12.52,1.12,1.09s-.52,1.09-1.12,1.09-1.12-.49-1.12-1.09.52-1.09,1.12-1.09ZM474.2,176.68h1.56v13.05h-1.56v-13.05Z"/>
        <path class="cls-1" d="M479.29,183.24c0-3.85,2.83-6.92,6.63-6.92,3.38,0,6.47,2.5,6.47,7.25v.26h-11.52c.26,2.99,2.45,4.91,5.07,4.91,1.85,0,3.48-.88,4.37-2.42l1.2.75c-.91,1.51-2.73,3.02-5.51,3.02-3.85,0-6.71-2.96-6.71-6.86ZM490.74,182.61c-.18-2.6-1.85-4.94-4.86-4.94-2.57,0-4.76,1.82-4.99,4.94h9.86Z"/>
        <path class="cls-1" d="M495.96,176.68h1.51v2.5h.05c.65-1.82,1.9-2.86,3.69-2.86.29,0,.7.03,1.07.13v1.48c-.34-.1-.75-.18-1.22-.18-2.39,0-3.54,2.13-3.54,4.65v7.33h-1.56v-13.05Z"/>
        <path class="cls-1" d="M504.2,183.21c0-3.85,2.81-6.89,6.47-6.89,2.37,0,4.47,1.3,5.33,3.17h.03v-2.81h1.56v13.05h-1.51v-2.86h-.03c-.88,2-3.07,3.22-5.36,3.22-3.61,0-6.5-2.99-6.5-6.89ZM510.96,188.75c2.89,0,5.15-2.42,5.15-5.54s-2.21-5.54-5.15-5.54-5.17,2.42-5.17,5.54,2.24,5.54,5.17,5.54Z"/>
        <path class="cls-1" d="M526.82,187.73l.96-.94c.88,1.14,2.13,1.98,3.87,1.98,1.9,0,3.2-.99,3.2-2.47,0-1.77-1.92-2.31-3.54-2.89-2.21-.78-3.67-1.74-3.67-3.61,0-2.03,1.72-3.48,4.26-3.48,1.87,0,3.25.81,4.06,1.79l-.94.99c-.7-.86-1.74-1.46-3.09-1.46-1.54,0-2.71.81-2.71,2.05,0,1.51,1.72,2.03,2.99,2.5,2,.7,4.21,1.56,4.21,4.03,0,2.29-1.95,3.87-4.76,3.87-2.29,0-3.95-1.07-4.86-2.37Z"/>
        <path class="cls-1" d="M538.89,183.24c0-3.85,2.83-6.92,6.63-6.92,3.38,0,6.47,2.5,6.47,7.25v.26h-11.52c.26,2.99,2.44,4.91,5.07,4.91,1.85,0,3.48-.88,4.37-2.42l1.2.75c-.91,1.51-2.73,3.02-5.51,3.02-3.85,0-6.71-2.96-6.71-6.86ZM550.32,182.61c-.18-2.6-1.85-4.94-4.86-4.94-2.57,0-4.76,1.82-4.99,4.94h9.85Z"/>
        <path class="cls-1" d="M555.55,176.68h1.51v2.08h.05c.81-1.4,2.44-2.42,4.58-2.42,3.2,0,5.07,1.92,5.07,5.56v7.83h-1.56v-7.67c0-2.94-1.4-4.42-3.82-4.42s-4.24,1.64-4.24,4.52v7.57h-1.59v-13.05Z"/>
        <path class="cls-1" d="M569.69,187.73l.96-.94c.88,1.14,2.13,1.98,3.87,1.98,1.9,0,3.2-.99,3.2-2.47,0-1.77-1.92-2.31-3.54-2.89-2.21-.78-3.67-1.74-3.67-3.61,0-2.03,1.72-3.48,4.27-3.48,1.87,0,3.25.81,4.05,1.79l-.94.99c-.7-.86-1.74-1.46-3.09-1.46-1.53,0-2.7.81-2.7,2.05,0,1.51,1.72,2.03,2.99,2.5,2,.7,4.21,1.56,4.21,4.03,0,2.29-1.95,3.87-4.76,3.87-2.29,0-3.95-1.07-4.86-2.37Z"/>
        <path class="cls-1" d="M582.59,185.11v-8.42h1.59v8.32c0,2.26,1.59,3.74,4,3.74s4.06-1.46,4.06-3.74v-8.32h1.56v8.42c0,2.86-2.13,4.99-5.62,4.99s-5.59-2.13-5.59-4.99Z"/>
        <path class="cls-1" d="M597.49,188.64c0-.75.6-1.38,1.35-1.38s1.35.62,1.35,1.38-.6,1.33-1.35,1.33-1.35-.6-1.35-1.33Z"/>
        <path class="cls-1" d="M199.25,203h1.66l4.24,16.25h.03l4.58-16.25h1.9l4.6,16.25h.03l4.21-16.25h1.69l-4.89,17.94h-1.98l-4.6-16.07-4.63,16.07h-1.95l-4.89-17.94Z"/>
        <path class="cls-1" d="M222.81,219.69l8.22-10.53h-8.22v-1.27h9.98v1.3l-8.16,10.48h8.19v1.27h-10.01v-1.25Z"/>
        <path class="cls-1" d="M237.91,218.08h-.05v2.86h-1.51v-19.5h1.56v9.26h.05c.86-1.87,2.96-3.17,5.3-3.17,3.69,0,6.5,3.04,6.5,6.89s-2.89,6.89-6.53,6.89c-2.29,0-4.45-1.22-5.33-3.22ZM243.01,219.95c2.91,0,5.15-2.39,5.15-5.54s-2.21-5.54-5.15-5.54-5.17,2.44-5.17,5.54,2.26,5.54,5.17,5.54Z"/>
        <path class="cls-1" d="M252.24,214.41c0-3.87,2.91-6.89,6.73-6.89s6.76,3.02,6.76,6.89-2.96,6.89-6.76,6.89-6.73-2.99-6.73-6.89ZM259,219.95c2.94,0,5.15-2.42,5.15-5.56s-2.21-5.51-5.15-5.51-5.15,2.42-5.15,5.51,2.16,5.56,5.15,5.56Z"/>
        <path class="cls-1" d="M269.79,223.95l1.01-.88c.94,1.14,2.52,1.79,4.42,1.79,3.07,0,4.89-1.69,4.89-4.6v-2.21h-.03c-.86,1.95-2.99,3.25-5.33,3.25-3.69,0-6.53-3.04-6.53-6.92s2.83-6.86,6.47-6.86c2.29,0,4.45,1.22,5.33,3.15h.03v-2.78h1.56v12.17c0,3.85-2.24,6.03-6.32,6.03-2.44,0-4.45-.75-5.51-2.13ZM274.99,219.95c2.94,0,5.15-2.42,5.15-5.51s-2.26-5.56-5.15-5.56-5.17,2.39-5.17,5.56,2.21,5.51,5.17,5.51Z"/>
        <path class="cls-1" d="M285.16,214.41c0-3.85,2.81-6.89,6.47-6.89,2.37,0,4.47,1.3,5.33,3.17h.03v-2.81h1.56v13.05h-1.51v-2.86h-.03c-.88,2-3.07,3.22-5.36,3.22-3.62,0-6.5-2.99-6.5-6.89ZM291.92,219.95c2.89,0,5.15-2.42,5.15-5.54s-2.21-5.54-5.15-5.54-5.17,2.42-5.17,5.54,2.24,5.54,5.17,5.54Z"/>
        <path class="cls-1" d="M302.08,214.44c0-3.87,2.89-6.92,6.73-6.92,2.47,0,4.65,1.27,5.75,3.25l-1.27.78c-.83-1.64-2.5-2.68-4.47-2.68-2.99,0-5.12,2.44-5.12,5.56s2.13,5.51,5.12,5.51c1.98,0,3.64-1.01,4.45-2.65l1.3.78c-1.12,1.98-3.25,3.22-5.75,3.22-3.82,0-6.73-2.96-6.73-6.86Z"/>
        <path class="cls-1" d="M316.93,214.41c0-3.85,2.81-6.89,6.47-6.89,2.37,0,4.47,1.3,5.33,3.17h.03v-2.81h1.56v13.05h-1.51v-2.86h-.03c-.88,2-3.07,3.22-5.36,3.22-3.62,0-6.5-2.99-6.5-6.89ZM323.69,219.95c2.89,0,5.15-2.42,5.15-5.54s-2.21-5.54-5.15-5.54-5.17,2.42-5.17,5.54,2.24,5.54,5.17,5.54Z"/>
        <path class="cls-1" d="M334.92,207.88h1.51v2.08h.05c.81-1.46,2.31-2.42,4.45-2.42s3.61.94,4.32,2.86c.83-1.74,2.45-2.86,4.71-2.86,3.17,0,4.86,2.03,4.86,5.59v7.8h-1.59v-7.49c0-2.94-1.17-4.6-3.46-4.6-2.42,0-4.06,1.61-4.06,4.37v7.72h-1.56v-7.51c0-2.96-1.3-4.58-3.59-4.58-2.42,0-4.06,1.72-4.06,4.6v7.49h-1.59v-13.05Z"/>
        <path class="cls-1" d="M362.79,226.01v-1.3c.31.03.75.05,1.01.05,1.27,0,1.79-.55,1.79-2v-14.87h1.56v15.21c0,2-1.07,2.99-3.15,2.99-.39,0-.86-.05-1.22-.08ZM366.33,203.67c.6,0,1.12.52,1.12,1.09s-.52,1.09-1.12,1.09-1.09-.49-1.09-1.09.49-1.09,1.09-1.09Z"/>
        <path class="cls-1" d="M370.67,214.44c0-3.85,2.83-6.92,6.63-6.92,3.38,0,6.47,2.5,6.47,7.25v.26h-11.52c.26,2.99,2.44,4.91,5.07,4.91,1.85,0,3.48-.88,4.37-2.42l1.2.75c-.91,1.51-2.73,3.02-5.51,3.02-3.85,0-6.71-2.96-6.71-6.86ZM382.11,213.81c-.18-2.6-1.85-4.94-4.86-4.94-2.57,0-4.76,1.82-4.99,4.94h9.85Z"/>
        <path class="cls-1" d="M392.33,214.41c0-3.87,2.91-6.89,6.73-6.89s6.76,3.02,6.76,6.89-2.96,6.89-6.76,6.89-6.73-2.99-6.73-6.89ZM399.09,219.95c2.94,0,5.15-2.42,5.15-5.56s-2.21-5.51-5.15-5.51-5.15,2.42-5.15,5.51,2.16,5.56,5.15,5.56Z"/>
        <path class="cls-1" d="M415.49,201.44h1.56v13.68l7.28-7.07h2.03l-5.82,5.62,6.14,7.28h-1.98l-5.2-6.27-2.44,2.34v3.93h-1.56v-19.5Z"/>
        <path class="cls-1" d="M429.24,207.88h1.51v2.5h.05c.65-1.82,1.9-2.86,3.69-2.86.29,0,.7.03,1.07.13v1.48c-.34-.1-.75-.18-1.22-.18-2.39,0-3.54,2.13-3.54,4.65v7.33h-1.56v-13.05Z"/>
        <path class="cls-1" d="M437.49,214.44c0-3.85,2.83-6.92,6.63-6.92,3.38,0,6.47,2.5,6.47,7.25v.26h-11.52c.26,2.99,2.44,4.91,5.07,4.91,1.85,0,3.48-.88,4.37-2.42l1.2.75c-.91,1.51-2.73,3.02-5.51,3.02-3.85,0-6.71-2.96-6.71-6.86ZM448.93,213.81c-.18-2.6-1.85-4.94-4.86-4.94-2.57,0-4.76,1.82-4.99,4.94h9.85Z"/>
        <path class="cls-1" d="M453.09,214.41c0-3.85,2.81-6.89,6.47-6.89,2.37,0,4.47,1.3,5.33,3.17h.03v-2.81h1.56v13.05h-1.51v-2.86h-.03c-.88,2-3.07,3.22-5.36,3.22-3.61,0-6.5-2.99-6.5-6.89ZM459.85,219.95c2.89,0,5.15-2.42,5.15-5.54s-2.21-5.54-5.15-5.54-5.17,2.42-5.17,5.54,2.24,5.54,5.17,5.54Z"/>
        <path class="cls-1" d="M471.86,218.21v-9.05h-2.34v-1.27h2.34v-3.2h1.56v3.2h3.35v1.27h-3.35v8.76c0,1.4.49,1.92,1.74,1.92.6,0,1.27-.13,1.61-.21v1.33c-.44.08-1.33.18-1.92.18-1.56,0-2.99-.65-2.99-2.94Z"/>
        <path class="cls-1" d="M478.64,226.01v-1.3c.36.03.7.1,1.27.1,1.12,0,1.87-.34,2.6-2.24l.75-1.95-5.54-12.74h1.79l4.52,10.79,4.21-10.79h1.69l-6.14,15.13c-.88,2.24-1.77,3.07-3.98,3.07-.47,0-.86-.05-1.2-.08Z"/>
        <path class="cls-1" d="M490.4,207.88h1.74l3.2,11.75,3.67-11.75h1.79l3.59,11.75,3.38-11.75h1.64l-3.98,13.05h-2.11l-3.43-11.39-3.51,11.39h-2.11l-3.87-13.05Z"/>
        <path class="cls-1" d="M512.11,207.88h1.51v2.08h.05c.81-1.4,2.44-2.42,4.58-2.42,3.2,0,5.07,1.92,5.07,5.56v7.83h-1.56v-7.67c0-2.94-1.4-4.42-3.82-4.42s-4.24,1.64-4.24,4.52v7.57h-1.59v-13.05Z"/>
        <path class="cls-1" d="M526.61,214.41c0-3.87,2.91-6.89,6.73-6.89s6.76,3.02,6.76,6.89-2.96,6.89-6.76,6.89-6.73-2.99-6.73-6.89ZM533.37,219.95c2.94,0,5.15-2.42,5.15-5.56s-2.21-5.51-5.15-5.51-5.15,2.42-5.15,5.51,2.16,5.56,5.15,5.56Z"/>
        <path class="cls-1" d="M542.24,218.93l.96-.94c.88,1.14,2.13,1.98,3.87,1.98,1.9,0,3.2-.99,3.2-2.47,0-1.77-1.92-2.31-3.54-2.89-2.21-.78-3.67-1.74-3.67-3.61,0-2.03,1.72-3.48,4.27-3.48,1.87,0,3.25.81,4.05,1.79l-.94.99c-.7-.86-1.74-1.46-3.09-1.46-1.53,0-2.7.81-2.7,2.05,0,1.51,1.72,2.03,2.99,2.5,2,.7,4.21,1.56,4.21,4.03,0,2.29-1.95,3.87-4.76,3.87-2.29,0-3.95-1.07-4.86-2.37ZM547,201.93h1.79l-1.98,4.13h-1.27l1.46-4.13Z"/>
        <path class="cls-1" d="M554.3,214.44c0-3.87,2.89-6.92,6.73-6.92,2.47,0,4.65,1.27,5.75,3.25l-1.27.78c-.83-1.64-2.5-2.68-4.47-2.68-2.99,0-5.12,2.44-5.12,5.56s2.13,5.51,5.12,5.51c1.98,0,3.64-1.01,4.45-2.65l1.3.78c-1.12,1.98-3.25,3.22-5.75,3.22-3.82,0-6.73-2.96-6.73-6.86ZM560.31,201.93h1.79l-1.98,4.13h-1.27l1.46-4.13Z"/>
        <path class="cls-1" d="M226.36,234.87c.6,0,1.12.52,1.12,1.09s-.52,1.09-1.12,1.09-1.12-.49-1.12-1.09.52-1.09,1.12-1.09ZM225.58,239.08h1.56v13.05h-1.56v-13.05Z"/>
        <path class="cls-1" d="M236.73,245.64c0-3.85,2.83-6.92,6.63-6.92,3.38,0,6.47,2.5,6.47,7.25v.26h-11.52c.26,2.99,2.45,4.91,5.07,4.91,1.85,0,3.48-.88,4.37-2.42l1.2.75c-.91,1.51-2.73,3.02-5.51,3.02-3.85,0-6.71-2.96-6.71-6.86ZM248.17,245.01c-.18-2.6-1.85-4.94-4.86-4.94-2.57,0-4.76,1.82-4.99,4.94h9.86Z"/>
        <path class="cls-1" d="M254.41,240.36h-2.34v-1.27h2.34v-3.61c0-1.92,1.07-2.99,2.91-2.99.52,0,1.17.05,1.56.08v1.33c-.31-.03-.78-.08-1.09-.08-1.33,0-1.79.52-1.79,1.85v3.43h2.89v1.27h-2.89v11.78h-1.59v-11.78Z"/>
        <path class="cls-1" d="M260.34,245.64c0-3.85,2.83-6.92,6.63-6.92,3.38,0,6.47,2.5,6.47,7.25v.26h-11.52c.26,2.99,2.44,4.91,5.07,4.91,1.85,0,3.48-.88,4.37-2.42l1.2.75c-.91,1.51-2.73,3.02-5.51,3.02-3.85,0-6.71-2.96-6.71-6.86ZM271.78,245.01c-.18-2.6-1.85-4.94-4.86-4.94-2.57,0-4.76,1.82-4.99,4.94h9.85Z"/>
        <path class="cls-1" d="M277.06,232.64h1.56v13.68l7.28-7.07h2.03l-5.82,5.62,6.14,7.28h-1.98l-5.2-6.27-2.44,2.34v3.93h-1.56v-19.5Z"/>
        <path class="cls-1" d="M291.59,249.41v-9.05h-2.34v-1.27h2.34v-3.2h1.56v3.2h3.35v1.27h-3.35v8.76c0,1.4.49,1.92,1.74,1.92.6,0,1.27-.13,1.61-.21v1.33c-.44.08-1.33.18-1.92.18-1.56,0-2.99-.65-2.99-2.94Z"/>
        <path class="cls-1" d="M298.38,257.21v-1.3c.36.03.7.1,1.27.1,1.12,0,1.87-.34,2.6-2.24l.75-1.95-5.54-12.74h1.79l4.52,10.79,4.21-10.79h1.69l-6.14,15.13c-.88,2.24-1.77,3.07-3.98,3.07-.47,0-.86-.05-1.2-.08Z"/>
        <path class="cls-1" d="M309.37,251.04c0-.73.57-1.33,1.3-1.33.78,0,1.38.6,1.38,1.33,0,.26-.13.65-.23.86l-1.48,2.76h-1.12l1.04-2.34c-.52-.16-.88-.65-.88-1.27Z"/>
        <path class="cls-1" d="M322.06,232.64h1.56v13.68l7.28-7.07h2.03l-5.82,5.62,6.14,7.28h-1.98l-5.2-6.27-2.44,2.34v3.93h-1.56v-19.5Z"/>
        <path class="cls-1" d="M336.6,249.41v-9.05h-2.34v-1.27h2.34v-3.2h1.56v3.2h3.35v1.27h-3.35v8.76c0,1.4.49,1.92,1.74,1.92.6,0,1.28-.13,1.61-.21v1.33c-.44.08-1.33.18-1.92.18-1.56,0-2.99-.65-2.99-2.94Z"/>
        <path class="cls-1" d="M343.67,245.61c0-3.87,2.91-6.89,6.73-6.89s6.76,3.02,6.76,6.89-2.96,6.89-6.76,6.89-6.73-2.99-6.73-6.89ZM350.43,251.15c2.94,0,5.15-2.42,5.15-5.56s-2.21-5.51-5.15-5.51-5.15,2.42-5.15,5.51,2.16,5.56,5.15,5.56ZM350.25,233.13h1.79l-1.98,4.13h-1.27l1.46-4.13Z"/>
        <path class="cls-1" d="M360.72,239.08h1.51v2.5h.05c.65-1.82,1.9-2.86,3.69-2.86.29,0,.7.03,1.07.13v1.48c-.34-.1-.75-.18-1.22-.18-2.39,0-3.54,2.13-3.54,4.65v7.33h-1.56v-13.05Z"/>
        <path class="cls-1" d="M368.97,245.64c0-3.85,2.83-6.92,6.63-6.92,3.38,0,6.47,2.5,6.47,7.25v.26h-11.52c.26,2.99,2.44,4.91,5.07,4.91,1.85,0,3.48-.88,4.37-2.42l1.2.75c-.91,1.51-2.73,3.02-5.51,3.02-3.85,0-6.71-2.96-6.71-6.86ZM380.41,245.01c-.18-2.6-1.85-4.94-4.86-4.94-2.57,0-4.76,1.82-4.99,4.94h9.85Z"/>
        <path class="cls-1" d="M390.62,245.64c0-3.87,2.89-6.92,6.73-6.92,2.47,0,4.65,1.27,5.75,3.25l-1.27.78c-.83-1.64-2.5-2.68-4.47-2.68-2.99,0-5.12,2.44-5.12,5.56s2.13,5.51,5.12,5.51c1.98,0,3.64-1.01,4.45-2.65l1.3.78c-1.12,1.98-3.25,3.22-5.75,3.22-3.82,0-6.73-2.96-6.73-6.86Z"/>
        <path class="cls-1" d="M405.26,250.89l8.22-10.53h-8.22v-1.27h9.98v1.3l-8.16,10.48h8.19v1.27h-10.01v-1.25Z"/>
        <path class="cls-1" d="M417.4,257.21v-1.3c.36.03.7.1,1.27.1,1.12,0,1.87-.34,2.6-2.24l.75-1.95-5.54-12.74h1.79l4.52,10.79,4.21-10.79h1.69l-6.14,15.13c-.88,2.24-1.77,3.07-3.98,3.07-.47,0-.86-.05-1.2-.08Z"/>
        <path class="cls-1" d="M431.05,239.08h1.51v2.08h.05c.81-1.4,2.45-2.42,4.58-2.42,3.2,0,5.07,1.92,5.07,5.56v7.83h-1.56v-7.67c0-2.94-1.4-4.42-3.82-4.42s-4.24,1.64-4.24,4.52v7.57h-1.59v-13.05Z"/>
        <path class="cls-1" d="M447.41,234.87c.6,0,1.12.52,1.12,1.09s-.52,1.09-1.12,1.09-1.12-.49-1.12-1.09.52-1.09,1.12-1.09ZM446.63,239.08h1.56v13.05h-1.56v-13.05Z"/>
        <path class="cls-1" d="M451.72,245.61c0-3.85,2.81-6.89,6.47-6.89,2.37,0,4.47,1.3,5.33,3.17h.03v-2.81h1.56v13.03l.05.03c-.96.6-1.98,1.46-1.98,2.52,0,.88.57,1.33,1.51,1.33.44,0,1.01-.13,1.43-.29v.99c-.34.13-.96.34-1.77.34-1.48,0-2.52-.81-2.52-2.13,0-1.22,1.07-2.21,2.11-2.76h-.34v-2.86h-.03c-.88,2-3.07,3.22-5.36,3.22-3.61,0-6.5-2.99-6.5-6.89ZM458.48,251.15c2.89,0,5.15-2.42,5.15-5.54s-2.21-5.54-5.15-5.54-5.17,2.42-5.17,5.54,2.24,5.54,5.17,5.54Z"/>
        <path class="cls-1" d="M474.71,245.64c0-3.87,2.89-6.92,6.73-6.92,2.47,0,4.65,1.27,5.75,3.25l-1.27.78c-.83-1.64-2.5-2.68-4.47-2.68-2.99,0-5.12,2.44-5.12,5.56s2.13,5.51,5.12,5.51c1.98,0,3.64-1.01,4.45-2.65l1.3.78c-1.12,1.98-3.25,3.22-5.75,3.22-3.82,0-6.73-2.96-6.73-6.86Z"/>
        <path class="cls-1" d="M490.49,247.51v-8.42h1.59v8.32c0,2.26,1.59,3.74,4,3.74s4.06-1.46,4.06-3.74v-8.32h1.56v8.42c0,2.86-2.13,4.99-5.62,4.99s-5.59-2.13-5.59-4.99Z"/>
        <path class="cls-1" d="M504.99,245.61c0-3.85,2.81-6.89,6.47-6.89,2.37,0,4.47,1.3,5.33,3.17h.03v-9.26h1.56v19.5h-1.51v-2.86h-.03c-.88,2-3.07,3.22-5.36,3.22-3.61,0-6.5-2.99-6.5-6.89ZM511.76,251.15c2.89,0,5.15-2.42,5.15-5.54s-2.21-5.54-5.15-5.54-5.17,2.42-5.17,5.54,2.24,5.54,5.17,5.54Z"/>
        <path class="cls-1" d="M522,245.61c0-3.85,2.81-6.89,6.47-6.89,2.37,0,4.47,1.3,5.33,3.17h.03v-2.81h1.56v13.05h-1.51v-2.86h-.03c-.88,2-3.07,3.22-5.36,3.22-3.61,0-6.5-2.99-6.5-6.89ZM528.76,251.15c2.89,0,5.15-2.42,5.15-5.54s-2.21-5.54-5.15-5.54-5.17,2.42-5.17,5.54,2.24,5.54,5.17,5.54Z"/>
        <path class="cls-1" d="M539.32,251.04c0-.75.6-1.38,1.35-1.38s1.35.62,1.35,1.38-.6,1.33-1.35,1.33-1.35-.6-1.35-1.33Z"/>
      </g>
    </g>
  </g>
</svg>