<?xml version="1.0" encoding="UTF-8"?>
<svg id="_2" data-name="2" xmlns="http://www.w3.org/2000/svg" viewBox="0 0 809.07 307.24">
  <defs>
    <style>
      .cls-1 {
        fill: #e8e9f3;
      }

      .cls-2 {
        fill: none;
        stroke: #6ad2ed;
        stroke-miterlimit: 10;
        stroke-width: 3px;
      }

      .cls-3 {
        fill: #ffc52e;
      }
    </style>
  </defs>
  <g id="RAMKA">
    <rect class="cls-2" x="84.48" y="49.82" width="597.95" height="228.01" rx="32.03" ry="32.03"/>
  </g>
  <g>
    <path class="cls-3" d="M158.56,67.66c9.14,0,15.58,3.4,15.58,10.18h-6.66c0-2.63-2.89-4.59-8.92-4.59h-1.15c-5.88,0-8.99,2.18-8.99,6.33v1.55c0,4.29,3.11,6.4,8.99,6.4h1.15c5.99,0,9.03-2.15,9.03-4.66h6.7c0,6.51-6.59,10.25-15.73,10.25h-1.15c-8.81,0-15.69-3.74-15.69-11.99v-1.55c0-8.33,6.88-11.91,15.69-11.91h1.15Z"/>
    <path class="cls-3" d="M195.67,67.66c8.88,0,15.95,4.37,15.95,12.14v1.18c0,7.84-7.07,12.14-15.95,12.14h-1.78c-9.07,0-16.28-4.29-16.28-12.14v-1.18c0-7.77,7.21-12.14,16.28-12.14h1.78ZM184.31,79.8v1.18c0,4.26,3.74,6.55,9.58,6.55h1.48c5.85,0,9.58-2.29,9.58-6.55v-1.18c0-4.22-3.74-6.55-9.58-6.55h-1.48c-5.85,0-9.58,2.33-9.58,6.55Z"/>
    <path class="cls-3" d="M224.5,67.99l15.13,16.98h.92v-16.98h6.22v24.79h-8.51l-15.13-16.98h-.96v16.98h-6.22v-24.79h8.55Z"/>
    <path class="cls-3" d="M281.44,67.99v5.29h-12.43v19.5h-6.55v-19.5h-12.43v-5.29h31.42Z"/>
    <path class="cls-3" d="M312.04,67.99v5.11h-20.87v4.7h18.8v4.77h-18.8v5.07h21.05v5.14h-27.57v-24.79h27.38Z"/>
    <path class="cls-3" d="M325.14,67.99l15.13,16.98h.92v-16.98h6.22v24.79h-8.51l-15.13-16.98h-.96v16.98h-6.22v-24.79h8.55Z"/>
    <path class="cls-3" d="M382.08,67.99v5.29h-12.43v19.5h-6.55v-19.5h-12.43v-5.29h31.42Z"/>
    <path class="cls-3" d="M411.12,67.66c9.14,0,15.58,3.4,15.58,10.18h-6.66c0-2.63-2.89-4.59-8.92-4.59h-1.15c-5.88,0-8.99,2.18-8.99,6.33v1.55c0,4.29,3.11,6.4,8.99,6.4h1.15c5.99,0,9.03-2.15,9.03-4.66h6.7c0,6.51-6.59,10.25-15.73,10.25h-1.15c-8.81,0-15.69-3.74-15.69-11.99v-1.55c0-8.33,6.88-11.91,15.69-11.91h1.15Z"/>
    <path class="cls-3" d="M451.97,67.99c5.48,0,8.73,3.07,8.73,7.36v1.11c0,3.26-1.89,5.81-5.03,6.85l6.18,9.47h-7.44l-5.85-8.95h-10.88v8.95h-6.55v-24.79h20.83ZM437.69,78.87h12.54c2.52,0,3.81-.78,3.81-2.66v-.55c0-1.81-1.29-2.78-3.81-2.78h-12.54v5.99Z"/>
    <path class="cls-3" d="M492.49,67.99v5.11h-20.87v4.7h18.8v4.77h-18.8v5.07h21.05v5.14h-27.57v-24.79h27.38Z"/>
    <path class="cls-3" d="M517.94,67.99l12.91,24.79h-6.55l-2.89-5.55h-16.84l-2.89,5.55h-6.33l12.88-24.79h9.69ZM507.17,82.24h11.66l-5.07-9.69h-1.59l-5,9.69Z"/>
    <path class="cls-3" d="M559.09,67.99v5.29h-12.43v19.5h-6.55v-19.5h-12.43v-5.29h31.42Z"/>
    <path class="cls-3" d="M578.07,67.66c8.88,0,15.95,4.37,15.95,12.14v1.18c0,7.84-7.07,12.14-15.95,12.14h-1.78c-9.07,0-16.28-4.29-16.28-12.14v-1.18c0-7.77,7.21-12.14,16.28-12.14h1.78ZM566.71,79.8v1.18c0,4.26,3.74,6.55,9.58,6.55h1.48c5.85,0,9.58-2.29,9.58-6.55v-1.18c0-4.22-3.74-6.55-9.58-6.55h-1.48c-5.85,0-9.58,2.33-9.58,6.55Z"/>
    <path class="cls-3" d="M619.17,67.99c5.48,0,8.73,3.07,8.73,7.36v1.11c0,3.26-1.89,5.81-5.03,6.85l6.18,9.47h-7.44l-5.85-8.95h-10.88v8.95h-6.55v-24.79h20.83ZM604.89,78.87h12.54c2.52,0,3.81-.78,3.81-2.66v-.55c0-1.81-1.29-2.78-3.81-2.78h-12.54v5.99Z"/>
  </g>
  <g>
    <path class="cls-1" d="M118.19,121.52c0-5.15,3.82-9.33,9.13-9.33s9.07,4.06,9.07,9.26-3.93,9.31-9.15,9.31-9.05-4.06-9.05-9.23ZM127.29,129.35c4.19,0,7.49-3.35,7.49-7.85s-3.33-7.9-7.51-7.9-7.46,3.35-7.46,7.85,3.3,7.9,7.49,7.9Z"/>
    <path class="cls-1" d="M138.86,123.91c0-3.85,2.81-6.89,6.47-6.89,2.37,0,4.47,1.3,5.33,3.17h.03v-9.26h1.56v19.5h-1.51v-2.86h-.03c-.88,2-3.07,3.22-5.36,3.22-3.61,0-6.5-2.99-6.5-6.89ZM145.62,129.45c2.89,0,5.15-2.42,5.15-5.54s-2.21-5.54-5.15-5.54-5.17,2.42-5.17,5.54,2.24,5.54,5.17,5.54Z"/>
    <path class="cls-1" d="M162.98,117.39h1.51v2.89h.05c.88-2.03,3.04-3.25,5.33-3.25,3.64,0,6.5,3.02,6.5,6.92s-2.78,6.86-6.47,6.86c-2.34,0-4.47-1.27-5.3-3.15h-.05v7.62h-1.56v-17.89ZM169.64,129.45c2.94,0,5.15-2.42,5.15-5.51s-2.24-5.56-5.15-5.56-5.17,2.42-5.17,5.54,2.21,5.54,5.17,5.54Z"/>
    <path class="cls-1" d="M178.84,123.91c0-3.87,2.91-6.89,6.73-6.89s6.76,3.02,6.76,6.89-2.96,6.89-6.76,6.89-6.73-2.99-6.73-6.89ZM185.6,129.45c2.94,0,5.15-2.42,5.15-5.56s-2.21-5.51-5.15-5.51-5.15,2.42-5.15,5.51,2.16,5.56,5.15,5.56Z"/>
    <path class="cls-1" d="M194.83,123.94c0-3.87,2.89-6.92,6.73-6.92,2.47,0,4.65,1.27,5.75,3.25l-1.27.78c-.83-1.64-2.5-2.68-4.47-2.68-2.99,0-5.12,2.44-5.12,5.56s2.13,5.51,5.12,5.51c1.98,0,3.64-1.01,4.45-2.65l1.3.78c-1.12,1.98-3.25,3.22-5.75,3.22-3.82,0-6.73-2.96-6.73-6.86Z"/>
    <path class="cls-1" d="M209.47,129.19l8.22-10.53h-8.22v-1.27h9.98v1.3l-8.17,10.48h8.19v1.27h-10.01v-1.25Z"/>
    <path class="cls-1" d="M221.64,123.91c0-3.85,2.81-6.89,6.47-6.89,2.37,0,4.47,1.3,5.33,3.17h.03v-2.81h1.56v13.03l.05.03c-.96.6-1.98,1.46-1.98,2.52,0,.88.57,1.33,1.51,1.33.44,0,1.01-.13,1.43-.29v.99c-.34.13-.96.34-1.77.34-1.48,0-2.52-.81-2.52-2.13,0-1.22,1.07-2.21,2.11-2.76h-.34v-2.86h-.03c-.88,2-3.07,3.22-5.36,3.22-3.61,0-6.5-2.99-6.5-6.89ZM228.4,129.45c2.89,0,5.15-2.42,5.15-5.54s-2.21-5.54-5.15-5.54-5.17,2.42-5.17,5.54,2.24,5.54,5.17,5.54Z"/>
    <path class="cls-1" d="M240.41,127.71v-9.05h-2.34v-1.27h2.34v-3.2h1.56v3.2h3.35v1.27h-3.35v8.76c0,1.4.49,1.92,1.74,1.92.6,0,1.27-.13,1.61-.21v1.33c-.44.08-1.33.18-1.92.18-1.56,0-2.99-.65-2.99-2.94Z"/>
    <path class="cls-1" d="M248.6,110.94h1.56v13.68l7.28-7.07h2.03l-5.82,5.62,6.14,7.28h-1.98l-5.2-6.27-2.44,2.34v3.93h-1.56v-19.5Z"/>
    <path class="cls-1" d="M262.12,125.81v-8.42h1.59v8.32c0,2.26,1.59,3.74,4,3.74s4.06-1.46,4.06-3.74v-8.32h1.56v8.42c0,2.86-2.13,4.99-5.62,4.99s-5.59-2.13-5.59-4.99Z"/>
    <path class="cls-1" d="M281.85,117.39h1.74l3.2,11.75,3.67-11.75h1.79l3.59,11.75,3.38-11.75h1.64l-3.98,13.05h-2.11l-3.43-11.39-3.51,11.39h-2.11l-3.87-13.05Z"/>
    <path class="cls-1" d="M302.21,135.51v-1.3c.36.03.7.1,1.27.1,1.12,0,1.87-.34,2.6-2.24l.75-1.95-5.54-12.74h1.79l4.52,10.79,4.21-10.79h1.69l-6.14,15.13c-.88,2.24-1.77,3.07-3.98,3.07-.47,0-.86-.05-1.2-.08Z"/>
    <path class="cls-1" d="M315.91,110.94h1.56v13.68l7.28-7.07h2.03l-5.82,5.62,6.14,7.28h-1.98l-5.2-6.27-2.44,2.34v3.93h-1.56v-19.5Z"/>
    <path class="cls-1" d="M329.67,117.39h1.51v2.5h.05c.65-1.82,1.9-2.86,3.69-2.86.29,0,.7.03,1.07.13v1.48c-.34-.1-.75-.18-1.22-.18-2.39,0-3.54,2.13-3.54,4.65v7.33h-1.56v-13.05Z"/>
    <path class="cls-1" d="M337.91,123.94c0-3.85,2.83-6.92,6.63-6.92,3.38,0,6.47,2.5,6.47,7.25v.26h-11.52c.26,2.99,2.44,4.91,5.07,4.91,1.85,0,3.48-.88,4.37-2.42l1.2.75c-.91,1.51-2.73,3.02-5.51,3.02-3.85,0-6.71-2.96-6.71-6.86ZM349.35,123.32c-.18-2.6-1.85-4.94-4.86-4.94-2.57,0-4.76,1.82-4.99,4.94h9.85Z"/>
    <path class="cls-1" d="M354.34,125.81v-8.42h1.59v8.32c0,2.26,1.59,3.74,4,3.74s4.06-1.46,4.06-3.74v-8.32h1.56v8.42c0,2.86-2.13,4.99-5.62,4.99s-5.59-2.13-5.59-4.99Z"/>
    <path class="cls-1" d="M367.47,135.51v-1.3c.31.03.75.05,1.01.05,1.27,0,1.79-.55,1.79-2v-14.87h1.56v15.21c0,2-1.07,2.99-3.15,2.99-.39,0-.86-.05-1.22-.08ZM371.01,113.18c.6,0,1.12.52,1.12,1.09s-.52,1.09-1.12,1.09-1.09-.49-1.09-1.09.49-1.09,1.09-1.09Z"/>
    <path class="cls-1" d="M375.35,123.94c0-3.85,2.83-6.92,6.63-6.92,3.38,0,6.47,2.5,6.47,7.25v.26h-11.52c.26,2.99,2.44,4.91,5.07,4.91,1.85,0,3.48-.88,4.37-2.42l1.2.75c-.65,1.07-1.72,2.11-3.28,2.65-.96.6-1.98,1.46-1.98,2.52,0,.88.57,1.33,1.51,1.33.44,0,1.01-.13,1.43-.29v.99c-.34.13-.96.34-1.77.34-1.48,0-2.52-.81-2.52-2.13,0-.99.7-1.82,1.53-2.39h-.44c-3.85,0-6.71-2.96-6.71-6.86ZM386.79,123.32c-.18-2.6-1.85-4.94-4.86-4.94-2.57,0-4.76,1.82-4.99,4.94h9.85Z"/>
    <path class="cls-1" d="M397.01,123.91c0-3.87,2.91-6.89,6.73-6.89s6.76,3.02,6.76,6.89-2.96,6.89-6.76,6.89-6.73-2.99-6.73-6.89ZM403.77,129.45c2.94,0,5.15-2.42,5.15-5.56s-2.21-5.51-5.15-5.51-5.15,2.42-5.15,5.51,2.16,5.56,5.15,5.56Z"/>
    <path class="cls-1" d="M413,123.91c0-3.85,2.81-6.89,6.47-6.89,2.37,0,4.47,1.3,5.33,3.17h.03v-9.26h1.56v19.5h-1.51v-2.86h-.03c-.88,2-3.07,3.22-5.36,3.22-3.61,0-6.5-2.99-6.5-6.89ZM419.76,129.45c2.89,0,5.15-2.42,5.15-5.54s-2.21-5.54-5.15-5.54-5.17,2.42-5.17,5.54,2.24,5.54,5.17,5.54Z"/>
    <path class="cls-1" d="M431.07,117.39h1.51v2.89h.05c.88-2.03,3.04-3.25,5.33-3.25,3.64,0,6.5,3.02,6.5,6.92s-2.78,6.86-6.47,6.86c-2.34,0-4.47-1.27-5.3-3.15h-.05v7.62h-1.56v-17.89ZM437.72,129.45c2.94,0,5.15-2.42,5.15-5.51s-2.24-5.56-5.15-5.56-5.17,2.42-5.17,5.54,2.21,5.54,5.17,5.54Z"/>
    <path class="cls-1" d="M446.93,123.91c0-3.87,2.91-6.89,6.73-6.89s6.76,3.02,6.76,6.89-2.96,6.89-6.76,6.89-6.73-2.99-6.73-6.89ZM453.69,129.45c2.94,0,5.15-2.42,5.15-5.56s-2.21-5.51-5.15-5.51-5.15,2.42-5.15,5.51,2.16,5.56,5.15,5.56Z"/>
    <path class="cls-1" d="M462.01,117.39h1.74l3.2,11.75,3.67-11.75h1.79l3.59,11.75,3.38-11.75h1.64l-3.98,13.05h-2.11l-3.43-11.39-3.51,11.39h-2.11l-3.87-13.05Z"/>
    <path class="cls-1" d="M484.49,113.18c.6,0,1.12.52,1.12,1.09s-.52,1.09-1.12,1.09-1.12-.49-1.12-1.09.52-1.09,1.12-1.09ZM483.71,117.39h1.56v13.05h-1.56v-13.05Z"/>
    <path class="cls-1" d="M488.81,123.94c0-3.85,2.83-6.92,6.63-6.92,3.38,0,6.47,2.5,6.47,7.25v.26h-11.52c.26,2.99,2.44,4.91,5.07,4.91,1.85,0,3.48-.88,4.37-2.42l1.2.75c-.91,1.51-2.73,3.02-5.51,3.02-3.85,0-6.71-2.96-6.71-6.86ZM500.25,123.32c-.18-2.6-1.85-4.94-4.86-4.94-2.57,0-4.76,1.82-4.99,4.94h9.85Z"/>
    <path class="cls-1" d="M504.41,123.91c0-3.85,2.81-6.89,6.47-6.89,2.37,0,4.47,1.3,5.33,3.17h.03v-9.26h1.56v19.5h-1.51v-2.86h-.03c-.88,2-3.07,3.22-5.36,3.22-3.61,0-6.5-2.99-6.5-6.89ZM511.17,129.45c2.89,0,5.15-2.42,5.15-5.54s-2.21-5.54-5.15-5.54-5.17,2.42-5.17,5.54,2.24,5.54,5.17,5.54Z"/>
    <path class="cls-1" d="M522.48,117.39h1.51v2.08h.05c.81-1.4,2.44-2.42,4.58-2.42,3.2,0,5.07,1.92,5.07,5.56v7.83h-1.56v-7.67c0-2.94-1.4-4.42-3.82-4.42s-4.24,1.64-4.24,4.52v7.57h-1.59v-13.05Z"/>
    <path class="cls-1" d="M538.83,113.18c.6,0,1.12.52,1.12,1.09s-.52,1.09-1.12,1.09-1.12-.49-1.12-1.09.52-1.09,1.12-1.09ZM538.05,117.39h1.56v13.05h-1.56v-13.05Z"/>
    <path class="cls-1" d="M550.27,117.39h1.51v2.89h.05c.88-2.03,3.04-3.25,5.33-3.25,3.64,0,6.5,3.02,6.5,6.92s-2.78,6.86-6.47,6.86c-2.34,0-4.47-1.27-5.3-3.15h-.05v7.62h-1.56v-17.89ZM556.93,129.45c2.94,0,5.15-2.42,5.15-5.51s-2.24-5.56-5.15-5.56-5.17,2.42-5.17,5.54,2.21,5.54,5.17,5.54Z"/>
    <path class="cls-1" d="M567.2,117.39h1.51v2.5h.05c.65-1.82,1.9-2.86,3.69-2.86.29,0,.7.03,1.07.13v1.48c-.34-.1-.75-.18-1.22-.18-2.39,0-3.54,2.13-3.54,4.65v7.33h-1.56v-13.05Z"/>
    <path class="cls-1" d="M575.44,129.19l8.22-10.53h-8.22v-1.27h9.98v1.3l-8.17,10.48h8.19v1.27h-10.01v-1.25Z"/>
    <path class="cls-1" d="M587.61,123.94c0-3.85,2.83-6.92,6.63-6.92,3.38,0,6.47,2.5,6.47,7.25v.26h-11.52c.26,2.99,2.44,4.91,5.07,4.91,1.85,0,3.48-.88,4.37-2.42l1.2.75c-.91,1.51-2.73,3.02-5.51,3.02-3.85,0-6.71-2.96-6.71-6.86ZM599.05,123.32c-.18-2.6-1.85-4.94-4.86-4.94-2.57,0-4.76,1.82-4.99,4.94h9.85Z"/>
    <path class="cls-1" d="M604.33,110.94h1.56v13.68l7.28-7.07h2.03l-5.82,5.62,6.14,7.28h-1.98l-5.2-6.27-2.44,2.34v3.93h-1.56v-19.5Z"/>
    <path class="cls-1" d="M616.57,123.91c0-3.85,2.81-6.89,6.47-6.89,2.37,0,4.47,1.3,5.33,3.17h.03v-2.81h1.56v13.05h-1.51v-2.86h-.03c-.88,2-3.07,3.22-5.36,3.22-3.61,0-6.5-2.99-6.5-6.89ZM623.33,129.45c2.89,0,5.15-2.42,5.15-5.54s-2.21-5.54-5.15-5.54-5.17,2.42-5.17,5.54,2.24,5.54,5.17,5.54Z"/>
    <path class="cls-1" d="M633.19,129.19l8.22-10.53h-8.22v-1.27h9.98v1.3l-8.17,10.48h8.19v1.27h-10.01v-1.25Z"/>
    <path class="cls-1" d="M645.72,129.35c0-.73.57-1.33,1.3-1.33.78,0,1.38.6,1.38,1.33,0,.26-.13.65-.23.86l-1.48,2.76h-1.12l1.04-2.34c-.52-.16-.88-.65-.88-1.27Z"/>
    <path class="cls-1" d="M107.29,159.64l.96-.94c.88,1.14,2.13,1.98,3.87,1.98,1.9,0,3.2-.99,3.2-2.47,0-1.77-1.92-2.31-3.54-2.89-2.21-.78-3.67-1.74-3.67-3.61,0-2.03,1.72-3.48,4.26-3.48,1.87,0,3.25.81,4.06,1.79l-.94.99c-.7-.86-1.74-1.46-3.09-1.46-1.53,0-2.7.81-2.7,2.05,0,1.51,1.72,2.03,2.99,2.5,2,.7,4.21,1.56,4.21,4.03,0,2.29-1.95,3.87-4.76,3.87-2.29,0-3.95-1.07-4.86-2.37Z"/>
    <path class="cls-1" d="M121.2,158.91v-9.05h-2.34v-1.27h2.34v-3.2h1.56v3.2h3.35v1.27h-3.35v8.76c0,1.4.49,1.92,1.74,1.92.6,0,1.27-.13,1.61-.21v1.33c-.44.08-1.33.18-1.92.18-1.56,0-2.99-.65-2.99-2.94Z"/>
    <path class="cls-1" d="M127.99,166.71v-1.3c.36.03.7.1,1.27.1,1.12,0,1.87-.34,2.6-2.24l.75-1.95-5.54-12.74h1.79l4.52,10.79,4.21-10.79h1.69l-6.14,15.13c-.88,2.24-1.77,3.07-3.98,3.07-.47,0-.86-.05-1.2-.08Z"/>
    <path class="cls-1" d="M141.69,142.14h1.56v19.5h-1.56v-19.5Z"/>
    <path class="cls-1" d="M154.77,144.38c.6,0,1.12.52,1.12,1.09s-.52,1.09-1.12,1.09-1.12-.49-1.12-1.09.52-1.09,1.12-1.09ZM153.99,148.59h1.56v13.05h-1.56v-13.05Z"/>
    <path class="cls-1" d="M166.21,148.59h1.51v2.08h.05c.81-1.4,2.44-2.42,4.58-2.42,3.2,0,5.07,1.92,5.07,5.56v7.83h-1.56v-7.67c0-2.94-1.4-4.42-3.82-4.42s-4.24,1.64-4.24,4.52v7.57h-1.59v-13.05Z"/>
    <path class="cls-1" d="M180.71,155.11c0-3.85,2.81-6.89,6.47-6.89,2.37,0,4.47,1.3,5.33,3.17h.03v-2.81h1.56v13.05h-1.51v-2.86h-.03c-.88,2-3.07,3.22-5.36,3.22-3.61,0-6.5-2.99-6.5-6.89ZM187.48,160.65c2.89,0,5.15-2.42,5.15-5.54s-2.21-5.54-5.15-5.54-5.17,2.42-5.17,5.54,2.24,5.54,5.17,5.54Z"/>
    <path class="cls-1" d="M198.71,148.59h1.51v2.5h.05c.65-1.82,1.9-2.86,3.69-2.86.29,0,.7.03,1.07.13v1.48c-.34-.1-.75-.18-1.22-.18-2.39,0-3.54,2.13-3.54,4.65v7.33h-1.56v-13.05Z"/>
    <path class="cls-1" d="M208.33,148.59h1.51v2.5h.05c.65-1.82,1.9-2.86,3.69-2.86.29,0,.7.03,1.07.13v1.48c-.34-.1-.75-.18-1.22-.18-2.39,0-3.54,2.13-3.54,4.65v7.33h-1.56v-13.05Z"/>
    <path class="cls-1" d="M216.57,155.11c0-3.85,2.81-6.89,6.47-6.89,2.37,0,4.47,1.3,5.33,3.17h.03v-2.81h1.56v13.05h-1.51v-2.86h-.03c-.88,2-3.07,3.22-5.36,3.22-3.61,0-6.5-2.99-6.5-6.89ZM223.33,160.65c2.89,0,5.15-2.42,5.15-5.54s-2.21-5.54-5.15-5.54-5.17,2.42-5.17,5.54,2.24,5.54,5.17,5.54Z"/>
    <path class="cls-1" d="M233.49,155.14c0-3.87,2.89-6.92,6.73-6.92,2.47,0,4.65,1.27,5.75,3.25l-1.27.78c-.83-1.64-2.5-2.68-4.47-2.68-2.99,0-5.12,2.44-5.12,5.56s2.13,5.51,5.12,5.51c1.98,0,3.64-1.01,4.45-2.65l1.3.78c-1.12,1.98-3.25,3.22-5.75,3.22-3.82,0-6.73-2.96-6.73-6.86Z"/>
    <path class="cls-1" d="M247.07,166.71v-1.3c.31.03.75.05,1.01.05,1.27,0,1.79-.55,1.79-2v-14.87h1.56v15.21c0,2-1.07,2.99-3.15,2.99-.39,0-.86-.05-1.22-.08ZM250.6,144.38c.6,0,1.12.52,1.12,1.09s-.52,1.09-1.12,1.09-1.09-.49-1.09-1.09.49-1.09,1.09-1.09Z"/>
    <path class="cls-1" d="M254.94,155.14c0-3.85,2.83-6.92,6.63-6.92,3.38,0,6.47,2.5,6.47,7.25v.26h-11.52c.26,2.99,2.44,4.91,5.07,4.91,1.85,0,3.48-.88,4.37-2.42l1.2.75c-.65,1.07-1.72,2.11-3.28,2.65-.96.6-1.98,1.46-1.98,2.52,0,.88.57,1.33,1.51,1.33.44,0,1.01-.13,1.43-.29v.99c-.34.13-.96.34-1.77.34-1.48,0-2.52-.81-2.52-2.13,0-.99.7-1.82,1.53-2.39h-.44c-3.85,0-6.71-2.96-6.71-6.86ZM266.38,154.52c-.18-2.6-1.85-4.94-4.86-4.94-2.57,0-4.76,1.82-4.99,4.94h9.85Z"/>
    <path class="cls-1" d="M270.44,160.55c0-.73.57-1.33,1.3-1.33.78,0,1.38.6,1.38,1.33,0,.26-.13.65-.23.86l-1.48,2.76h-1.12l1.04-2.34c-.52-.16-.88-.65-.88-1.27Z"/>
    <path class="cls-1" d="M282.01,155.11c0-3.85,2.81-6.89,6.47-6.89,2.37,0,4.47,1.3,5.33,3.17h.03v-9.26h1.56v19.5h-1.51v-2.86h-.03c-.88,2-3.07,3.22-5.36,3.22-3.61,0-6.5-2.99-6.5-6.89ZM288.77,160.65c2.89,0,5.15-2.42,5.15-5.54s-2.21-5.54-5.15-5.54-5.17,2.42-5.17,5.54,2.24,5.54,5.17,5.54Z"/>
    <path class="cls-1" d="M299.01,155.11c0-3.87,2.91-6.89,6.73-6.89s6.76,3.02,6.76,6.89-2.96,6.89-6.76,6.89-6.73-2.99-6.73-6.89ZM305.77,160.65c2.94,0,5.15-2.42,5.15-5.56s-2.21-5.51-5.15-5.51-5.15,2.42-5.15,5.51,2.16,5.56,5.15,5.56Z"/>
    <path class="cls-1" d="M314.64,159.64l.96-.94c.88,1.14,2.13,1.98,3.87,1.98,1.9,0,3.2-.99,3.2-2.47,0-1.77-1.92-2.31-3.54-2.89-2.21-.78-3.67-1.74-3.67-3.61,0-2.03,1.72-3.48,4.26-3.48,1.87,0,3.25.81,4.06,1.79l-.94.99c-.7-.86-1.74-1.46-3.09-1.46-1.53,0-2.7.81-2.7,2.05,0,1.51,1.72,2.03,2.99,2.5,2,.7,4.21,1.56,4.21,4.03,0,2.29-1.95,3.87-4.76,3.87-2.29,0-3.95-1.07-4.86-2.37Z"/>
    <path class="cls-1" d="M328.55,158.91v-9.05h-2.34v-1.27h2.34v-3.2h1.56v3.2h3.35v1.27h-3.35v8.76c0,1.4.49,1.92,1.74,1.92.6,0,1.27-.13,1.61-.21v1.33c-.44.08-1.33.18-1.92.18-1.56,0-2.99-.65-2.99-2.94Z"/>
    <path class="cls-1" d="M335.62,155.11c0-3.87,2.91-6.89,6.73-6.89s6.76,3.02,6.76,6.89-2.96,6.89-6.76,6.89-6.73-2.99-6.73-6.89ZM342.38,160.65c2.94,0,5.15-2.42,5.15-5.56s-2.21-5.51-5.15-5.51-5.15,2.42-5.15,5.51,2.16,5.56,5.15,5.56Z"/>
    <path class="cls-1" d="M351.25,159.64l.96-.94c.88,1.14,2.13,1.98,3.87,1.98,1.9,0,3.2-.99,3.2-2.47,0-1.77-1.92-2.31-3.54-2.89-2.21-.78-3.67-1.74-3.67-3.61,0-2.03,1.72-3.48,4.26-3.48,1.87,0,3.25.81,4.06,1.79l-.94.99c-.7-.86-1.74-1.46-3.09-1.46-1.53,0-2.7.81-2.7,2.05,0,1.51,1.72,2.03,2.99,2.5,2,.7,4.21,1.56,4.21,4.03,0,2.29-1.95,3.87-4.76,3.87-2.29,0-3.95-1.07-4.86-2.37Z"/>
    <path class="cls-1" d="M363.31,155.11c0-3.87,2.91-6.89,6.73-6.89s6.76,3.02,6.76,6.89-2.96,6.89-6.76,6.89-6.73-2.99-6.73-6.89ZM370.07,160.65c2.94,0,5.15-2.42,5.15-5.56s-2.21-5.51-5.15-5.51-5.15,2.42-5.15,5.51,2.16,5.56,5.15,5.56Z"/>
    <path class="cls-1" d="M378.39,148.59h1.74l3.2,11.75,3.67-11.75h1.79l3.59,11.75,3.38-11.75h1.64l-3.98,13.05h-2.11l-3.43-11.39-3.51,11.39h-2.11l-3.87-13.05Z"/>
    <path class="cls-1" d="M398.96,155.11c0-3.85,2.81-6.89,6.47-6.89,2.37,0,4.47,1.3,5.33,3.17h.03v-2.81h1.56v13.05h-1.51v-2.86h-.03c-.88,2-3.07,3.22-5.36,3.22-3.61,0-6.5-2.99-6.5-6.89ZM405.72,160.65c2.89,0,5.15-2.42,5.15-5.54s-2.21-5.54-5.15-5.54-5.17,2.42-5.17,5.54,2.24,5.54,5.17,5.54Z"/>
    <path class="cls-1" d="M416.95,148.59h1.51v2.08h.05c.81-1.4,2.44-2.42,4.58-2.42,3.2,0,5.07,1.92,5.07,5.56v7.83h-1.56v-7.67c0-2.94-1.4-4.42-3.82-4.42s-4.24,1.64-4.24,4.52v7.57h-1.59v-13.05Z"/>
    <path class="cls-1" d="M431.46,155.11c0-3.85,2.81-6.89,6.47-6.89,2.37,0,4.47,1.3,5.33,3.17h.03v-2.81h1.56v13.03l.05.03c-.96.6-1.98,1.46-1.98,2.52,0,.88.57,1.33,1.51,1.33.44,0,1.01-.13,1.43-.29v.99c-.34.13-.96.34-1.77.34-1.48,0-2.52-.81-2.52-2.13,0-1.22,1.07-2.21,2.11-2.76h-.34v-2.86h-.03c-.88,2-3.07,3.22-5.36,3.22-3.61,0-6.5-2.99-6.5-6.89ZM438.22,160.65c2.89,0,5.15-2.42,5.15-5.54s-2.21-5.54-5.15-5.54-5.17,2.42-5.17,5.54,2.24,5.54,5.17,5.54Z"/>
    <path class="cls-1" d="M454.44,155.11c0-3.85,2.81-6.89,6.47-6.89,2.37,0,4.47,1.3,5.33,3.17h.03v-9.26h1.56v19.5h-1.51v-2.86h-.03c-.88,2-3.07,3.22-5.36,3.22-3.61,0-6.5-2.99-6.5-6.89ZM461.2,160.65c2.89,0,5.15-2.42,5.15-5.54s-2.21-5.54-5.15-5.54-5.17,2.42-5.17,5.54,2.24,5.54,5.17,5.54Z"/>
    <path class="cls-1" d="M471.44,155.11c0-3.87,2.91-6.89,6.73-6.89s6.76,3.02,6.76,6.89-2.96,6.89-6.76,6.89-6.73-2.99-6.73-6.89ZM478.2,160.65c2.94,0,5.15-2.42,5.15-5.56s-2.21-5.51-5.15-5.51-5.15,2.42-5.15,5.51,2.16,5.56,5.15,5.56Z"/>
    <path class="cls-1" d="M493.49,155.11c0-3.87,2.91-6.89,6.73-6.89s6.76,3.02,6.76,6.89-2.96,6.89-6.76,6.89-6.73-2.99-6.73-6.89ZM500.25,160.65c2.94,0,5.15-2.42,5.15-5.56s-2.21-5.51-5.15-5.51-5.15,2.42-5.15,5.51,2.16,5.56,5.15,5.56Z"/>
    <path class="cls-1" d="M509.48,155.11c0-3.85,2.81-6.89,6.47-6.89,2.37,0,4.47,1.3,5.33,3.17h.03v-9.26h1.56v19.5h-1.51v-2.86h-.03c-.88,2-3.07,3.22-5.36,3.22-3.61,0-6.5-2.99-6.5-6.89ZM516.24,160.65c2.89,0,5.15-2.42,5.15-5.54s-2.21-5.54-5.15-5.54-5.17,2.42-5.17,5.54,2.24,5.54,5.17,5.54Z"/>
    <path class="cls-1" d="M527.55,148.59h1.51v2.89h.05c.88-2.03,3.04-3.25,5.33-3.25,3.64,0,6.5,3.02,6.5,6.92s-2.78,6.86-6.47,6.86c-2.34,0-4.47-1.27-5.3-3.15h-.05v7.62h-1.56v-17.89ZM534.21,160.65c2.94,0,5.15-2.42,5.15-5.51s-2.24-5.56-5.15-5.56-5.17,2.42-5.17,5.54,2.21,5.54,5.17,5.54Z"/>
    <path class="cls-1" d="M543.41,155.11c0-3.87,2.91-6.89,6.73-6.89s6.76,3.02,6.76,6.89-2.96,6.89-6.76,6.89-6.73-2.99-6.73-6.89ZM550.17,160.65c2.94,0,5.15-2.42,5.15-5.56s-2.21-5.51-5.15-5.51-5.15,2.42-5.15,5.51,2.16,5.56,5.15,5.56Z"/>
    <path class="cls-1" d="M558.49,148.59h1.74l3.2,11.75,3.67-11.75h1.79l3.59,11.75,3.38-11.75h1.64l-3.98,13.05h-2.11l-3.43-11.39-3.51,11.39h-2.11l-3.87-13.05Z"/>
    <path class="cls-1" d="M580.98,144.38c.6,0,1.12.52,1.12,1.09s-.52,1.09-1.12,1.09-1.12-.49-1.12-1.09.52-1.09,1.12-1.09ZM580.2,148.59h1.56v13.05h-1.56v-13.05Z"/>
    <path class="cls-1" d="M585.29,155.14c0-3.85,2.83-6.92,6.63-6.92,3.38,0,6.47,2.5,6.47,7.25v.26h-11.52c.26,2.99,2.44,4.91,5.07,4.91,1.85,0,3.48-.88,4.37-2.42l1.2.75c-.91,1.51-2.73,3.02-5.51,3.02-3.85,0-6.71-2.96-6.71-6.86ZM596.74,154.52c-.18-2.6-1.85-4.94-4.86-4.94-2.57,0-4.76,1.82-4.99,4.94h9.85Z"/>
    <path class="cls-1" d="M600.89,155.11c0-3.85,2.81-6.89,6.47-6.89,2.37,0,4.47,1.3,5.33,3.17h.03v-9.26h1.56v19.5h-1.51v-2.86h-.03c-.88,2-3.07,3.22-5.36,3.22-3.61,0-6.5-2.99-6.5-6.89ZM607.66,160.65c2.89,0,5.15-2.42,5.15-5.54s-2.21-5.54-5.15-5.54-5.17,2.42-5.17,5.54,2.24,5.54,5.17,5.54Z"/>
    <path class="cls-1" d="M618.96,148.59h1.51v2.08h.05c.81-1.4,2.44-2.42,4.58-2.42,3.2,0,5.07,1.92,5.07,5.56v7.83h-1.56v-7.67c0-2.94-1.4-4.42-3.82-4.42s-4.24,1.64-4.24,4.52v7.57h-1.59v-13.05Z"/>
    <path class="cls-1" d="M635.32,144.38c.6,0,1.12.52,1.12,1.09s-.52,1.09-1.12,1.09-1.12-.49-1.12-1.09.52-1.09,1.12-1.09ZM634.54,148.59h1.56v13.05h-1.56v-13.05Z"/>
    <path class="cls-1" d="M639.63,155.14c0-3.85,2.83-6.92,6.63-6.92,3.38,0,6.47,2.5,6.47,7.25v.26h-11.52c.26,2.99,2.44,4.91,5.07,4.91,1.85,0,3.48-.88,4.37-2.42l1.2.75c-.91,1.51-2.73,3.02-5.51,3.02-3.85,0-6.71-2.96-6.71-6.86ZM651.07,154.52c-.18-2.6-1.85-4.94-4.86-4.94-2.57,0-4.76,1.82-4.99,4.94h9.85Z"/>
    <path class="cls-1" d="M653.86,166.71v-1.3c.31.03.75.05,1.01.05,1.27,0,1.79-.55,1.79-2v-14.87h1.56v15.21c0,2-1.07,2.99-3.15,2.99-.39,0-.86-.05-1.22-.08ZM657.39,144.38c.6,0,1.12.52,1.12,1.09s-.52,1.09-1.12,1.09-1.09-.49-1.09-1.09.49-1.09,1.09-1.09Z"/>
    <path class="cls-1" d="M210.07,179.79h1.51v2.89h.05c.88-2.03,3.04-3.25,5.33-3.25,3.64,0,6.5,3.02,6.5,6.92s-2.78,6.86-6.47,6.86c-2.34,0-4.47-1.27-5.3-3.15h-.05v7.62h-1.56v-17.89ZM216.73,191.85c2.94,0,5.15-2.42,5.15-5.51s-2.24-5.56-5.15-5.56-5.17,2.42-5.17,5.54,2.21,5.54,5.17,5.54Z"/>
    <path class="cls-1" d="M227.05,173.34h1.56v19.5h-1.56v-19.5Z"/>
    <path class="cls-1" d="M232.22,186.31c0-3.85,2.81-6.89,6.47-6.89,2.37,0,4.47,1.3,5.33,3.17h.03v-2.81h1.56v13.05h-1.51v-2.86h-.03c-.88,2-3.07,3.22-5.36,3.22-3.61,0-6.5-2.99-6.5-6.89ZM238.98,191.85c2.89,0,5.15-2.42,5.15-5.54s-2.21-5.54-5.15-5.54-5.17,2.42-5.17,5.54,2.24,5.54,5.17,5.54Z"/>
    <path class="cls-1" d="M250.99,190.11v-9.05h-2.34v-1.27h2.34v-3.2h1.56v3.2h3.35v1.27h-3.35v8.76c0,1.4.49,1.92,1.74,1.92.6,0,1.27-.13,1.61-.21v1.33c-.44.08-1.33.18-1.92.18-1.56,0-2.99-.65-2.99-2.94Z"/>
    <path class="cls-1" d="M260.14,181.06h-2.34v-1.27h2.34v-3.61c0-1.92,1.07-2.99,2.91-2.99.52,0,1.17.05,1.56.08v1.33c-.31-.03-.78-.08-1.09-.08-1.33,0-1.79.52-1.79,1.85v3.43h2.89v1.27h-2.89v11.78h-1.59v-11.78Z"/>
    <path class="cls-1" d="M266.07,186.31c0-3.87,2.91-6.89,6.73-6.89s6.76,3.02,6.76,6.89-2.96,6.89-6.76,6.89-6.73-2.99-6.73-6.89ZM272.83,191.85c2.94,0,5.15-2.42,5.15-5.56s-2.21-5.51-5.15-5.51-5.15,2.42-5.15,5.51,2.16,5.56,5.15,5.56Z"/>
    <path class="cls-1" d="M283.13,179.79h1.51v2.5h.05c.65-1.82,1.9-2.86,3.69-2.86.29,0,.7.03,1.07.13v1.48c-.34-.1-.75-.18-1.22-.18-2.39,0-3.54,2.13-3.54,4.65v7.33h-1.56v-13.05Z"/>
    <path class="cls-1" d="M292.75,179.79h1.51v2.08h.05c.81-1.46,2.31-2.42,4.45-2.42s3.61.94,4.32,2.86c.83-1.74,2.44-2.86,4.71-2.86,3.17,0,4.86,2.03,4.86,5.59v7.8h-1.59v-7.49c0-2.94-1.17-4.6-3.46-4.6-2.42,0-4.06,1.61-4.06,4.37v7.72h-1.56v-7.51c0-2.96-1.3-4.58-3.59-4.58-2.42,0-4.06,1.72-4.06,4.6v7.49h-1.59v-13.05Z"/>
    <path class="cls-1" d="M315.65,197.91v-1.3c.36.03.7.1,1.27.1,1.12,0,1.87-.34,2.6-2.24l.75-1.95-5.54-12.74h1.79l4.52,10.79,4.21-10.79h1.69l-6.14,15.13c-.88,2.24-1.77,3.07-3.98,3.07-.47,0-.86-.05-1.2-.08Z"/>
    <path class="cls-1" d="M336.14,175.58c.6,0,1.12.52,1.12,1.09s-.52,1.09-1.12,1.09-1.12-.49-1.12-1.09.52-1.09,1.12-1.09ZM335.36,179.79h1.56v13.05h-1.56v-13.05Z"/>
    <path class="cls-1" d="M348.07,195.86l1.01-.88c.94,1.14,2.52,1.79,4.42,1.79,3.07,0,4.89-1.69,4.89-4.6v-2.21h-.03c-.86,1.95-2.99,3.25-5.33,3.25-3.69,0-6.53-3.04-6.53-6.92s2.83-6.86,6.47-6.86c2.29,0,4.45,1.22,5.33,3.15h.03v-2.78h1.56v12.17c0,3.85-2.24,6.03-6.32,6.03-2.44,0-4.45-.75-5.51-2.13ZM353.27,191.85c2.94,0,5.15-2.42,5.15-5.51s-2.26-5.56-5.15-5.56-5.17,2.39-5.17,5.56,2.21,5.51,5.17,5.51Z"/>
    <path class="cls-1" d="M364.51,179.79h1.51v2.5h.05c.65-1.82,1.9-2.86,3.69-2.86.29,0,.7.03,1.07.13v1.48c-.34-.1-.75-.18-1.22-.18-2.39,0-3.54,2.13-3.54,4.65v7.33h-1.56v-13.05Z"/>
    <path class="cls-1" d="M373.89,188.21v-8.42h1.59v8.32c0,2.26,1.59,3.74,4,3.74s4.06-1.46,4.06-3.74v-8.32h1.56v8.42c0,2.86-2.13,4.99-5.62,4.99s-5.59-2.13-5.59-4.99Z"/>
    <path class="cls-1" d="M389.47,179.79h1.51v2.89h.05c.88-2.03,3.04-3.25,5.33-3.25,3.64,0,6.5,3.02,6.5,6.92s-2.78,6.86-6.47,6.86c-2.34,0-4.47-1.27-5.3-3.15h-.05v7.62h-1.56v-17.89ZM396.12,191.85c2.94,0,5.15-2.42,5.15-5.51s-2.24-5.56-5.15-5.56-5.17,2.42-5.17,5.54,2.21,5.54,5.17,5.54Z"/>
    <path class="cls-1" d="M404.96,197.91v-1.3c.36.03.7.1,1.27.1,1.12,0,1.87-.34,2.6-2.24l.75-1.95-5.54-12.74h1.79l4.52,10.79,4.21-10.79h1.69l-6.14,15.13c-.88,2.24-1.77,3.07-3.98,3.07-.47,0-.86-.05-1.2-.08Z"/>
    <path class="cls-1" d="M423.6,186.31c0-3.87,2.91-6.89,6.73-6.89s6.76,3.02,6.76,6.89-2.96,6.89-6.76,6.89-6.73-2.99-6.73-6.89ZM430.36,191.85c2.94,0,5.15-2.42,5.15-5.56s-2.21-5.51-5.15-5.51-5.15,2.42-5.15,5.51,2.16,5.56,5.15,5.56Z"/>
    <path class="cls-1" d="M439.59,186.31c0-3.85,2.81-6.89,6.47-6.89,2.37,0,4.47,1.3,5.33,3.17h.03v-9.26h1.56v19.5h-1.51v-2.86h-.03c-.88,2-3.07,3.22-5.36,3.22-3.61,0-6.5-2.99-6.5-6.89ZM446.35,191.85c2.89,0,5.15-2.42,5.15-5.54s-2.21-5.54-5.15-5.54-5.17,2.42-5.17,5.54,2.24,5.54,5.17,5.54Z"/>
    <path class="cls-1" d="M459.27,189.98h-.05v2.86h-1.51v-19.5h1.56v9.26h.05c.86-1.87,2.96-3.17,5.3-3.17,3.69,0,6.5,3.04,6.5,6.89s-2.89,6.89-6.53,6.89c-2.29,0-4.45-1.22-5.33-3.22ZM464.37,191.85c2.91,0,5.15-2.39,5.15-5.54s-2.21-5.54-5.15-5.54-5.17,2.44-5.17,5.54,2.26,5.54,5.17,5.54Z"/>
    <path class="cls-1" d="M475.45,175.58c.6,0,1.12.52,1.12,1.09s-.52,1.09-1.12,1.09-1.12-.49-1.12-1.09.52-1.09,1.12-1.09ZM474.67,179.79h1.56v13.05h-1.56v-13.05Z"/>
    <path class="cls-1" d="M479.76,186.31c0-3.87,2.91-6.89,6.73-6.89s6.76,3.02,6.76,6.89-2.96,6.89-6.76,6.89-6.73-2.99-6.73-6.89ZM486.52,191.85c2.94,0,5.15-2.42,5.15-5.56s-2.21-5.51-5.15-5.51-5.15,2.42-5.15,5.51,2.16,5.56,5.15,5.56Z"/>
    <path class="cls-1" d="M496.82,179.79h1.51v2.5h.05c.65-1.82,1.9-2.86,3.69-2.86.29,0,.7.03,1.07.13v1.48c-.34-.1-.75-.18-1.22-.18-2.39,0-3.54,2.13-3.54,4.65v7.33h-1.56v-13.05Z"/>
    <path class="cls-1" d="M505.06,186.34c0-3.87,2.89-6.92,6.73-6.92,2.47,0,4.65,1.27,5.75,3.25l-1.27.78c-.83-1.64-2.5-2.68-4.47-2.68-2.99,0-5.12,2.44-5.12,5.56s2.13,5.51,5.12,5.51c1.98,0,3.64-1.01,4.45-2.65l1.3.78c-1.12,1.98-3.25,3.22-5.75,3.22-3.82,0-6.73-2.96-6.73-6.86Z"/>
    <path class="cls-1" d="M519.91,186.31c0-3.87,2.91-6.89,6.73-6.89s6.76,3.02,6.76,6.89-2.96,6.89-6.76,6.89-6.73-2.99-6.73-6.89ZM526.67,191.85c2.94,0,5.15-2.42,5.15-5.56s-2.21-5.51-5.15-5.51-5.15,2.42-5.15,5.51,2.16,5.56,5.15,5.56ZM526.48,173.83h1.79l-1.98,4.13h-1.27l1.46-4.13Z"/>
    <path class="cls-1" d="M534.99,179.79h1.74l3.2,11.75,3.67-11.75h1.79l3.59,11.75,3.38-11.75h1.64l-3.98,13.05h-2.11l-3.43-11.39-3.51,11.39h-2.11l-3.87-13.05Z"/>
    <path class="cls-1" d="M554.82,191.75c0-.75.6-1.38,1.35-1.38s1.35.62,1.35,1.38-.6,1.33-1.35,1.33-1.35-.6-1.35-1.33Z"/>
    <path class="cls-1" d="M206.48,207.48h-5.9v-1.38h13.44v1.38h-5.93v16.56h-1.61v-16.56Z"/>
    <path class="cls-1" d="M213.89,217.54c0-3.85,2.83-6.92,6.63-6.92,3.38,0,6.47,2.5,6.47,7.25v.26h-11.52c.26,2.99,2.44,4.91,5.07,4.91,1.85,0,3.48-.88,4.37-2.42l1.2.75c-.91,1.51-2.73,3.02-5.51,3.02-3.85,0-6.71-2.96-6.71-6.86ZM225.33,216.92c-.18-2.6-1.85-4.94-4.86-4.94-2.57,0-4.76,1.82-4.99,4.94h9.85Z"/>
    <path class="cls-1" d="M235.55,217.51c0-3.85,2.81-6.89,6.47-6.89,2.37,0,4.47,1.3,5.33,3.17h.03v-9.26h1.56v19.5h-1.51v-2.86h-.03c-.88,2-3.07,3.22-5.36,3.22-3.61,0-6.5-2.99-6.5-6.89ZM242.31,223.05c2.89,0,5.15-2.42,5.15-5.54s-2.21-5.54-5.15-5.54-5.17,2.42-5.17,5.54,2.24,5.54,5.17,5.54Z"/>
    <path class="cls-1" d="M252.24,222.79l8.22-10.53h-8.22v-1.27h9.98v1.3l-8.17,10.48h8.19v1.27h-10.01v-1.25Z"/>
    <path class="cls-1" d="M266.51,206.78c.6,0,1.12.52,1.12,1.09s-.52,1.09-1.12,1.09-1.12-.49-1.12-1.09.52-1.09,1.12-1.09ZM265.73,210.99h1.56v13.05h-1.56v-13.05Z"/>
    <path class="cls-1" d="M270.83,217.51c0-3.85,2.81-6.89,6.47-6.89,2.37,0,4.47,1.3,5.33,3.17h.03v-2.81h1.56v13.05h-1.51v-2.86h-.03c-.88,2-3.07,3.22-5.36,3.22-3.61,0-6.5-2.99-6.5-6.89ZM277.59,223.05c2.89,0,5.15-2.42,5.15-5.54s-2.21-5.54-5.15-5.54-5.17,2.42-5.17,5.54,2.24,5.54,5.17,5.54Z"/>
    <path class="cls-1" d="M287.26,215.28l1.74-1.07v-9.67h1.56v8.74l2.18-1.33v1.43l-2.18,1.33v9.33h-1.56v-8.4l-1.74,1.04v-1.4Z"/>
    <path class="cls-1" d="M294.72,217.51c0-3.85,2.81-6.89,6.47-6.89,2.37,0,4.47,1.3,5.33,3.17h.03v-2.81h1.56v13.05h-1.51v-2.86h-.03c-.88,2-3.07,3.22-5.36,3.22-3.61,0-6.5-2.99-6.5-6.89ZM301.48,223.05c2.89,0,5.15-2.42,5.15-5.54s-2.21-5.54-5.15-5.54-5.17,2.42-5.17,5.54,2.24,5.54,5.17,5.54Z"/>
    <path class="cls-1" d="M312.71,210.99h1.51v2.08h.05c.81-1.4,2.44-2.42,4.58-2.42,3.2,0,5.07,1.92,5.07,5.56v7.83h-1.56v-7.67c0-2.94-1.4-4.42-3.82-4.42s-4.24,1.64-4.24,4.52v7.57h-1.59v-13.05Z"/>
    <path class="cls-1" d="M329.07,206.78c.6,0,1.12.52,1.12,1.09s-.52,1.09-1.12,1.09-1.12-.49-1.12-1.09.52-1.09,1.12-1.09ZM328.29,210.99h1.56v13.05h-1.56v-13.05Z"/>
    <path class="cls-1" d="M333.38,217.51c0-3.85,2.81-6.89,6.47-6.89,2.37,0,4.47,1.3,5.33,3.17h.03v-2.81h1.56v13.05h-1.51v-2.86h-.03c-.88,2-3.07,3.22-5.36,3.22-3.61,0-6.5-2.99-6.5-6.89ZM340.15,223.05c2.89,0,5.15-2.42,5.15-5.54s-2.21-5.54-5.15-5.54-5.17,2.42-5.17,5.54,2.24,5.54,5.17,5.54Z"/>
    <path class="cls-1" d="M355.54,210.99h1.74l3.2,11.75,3.67-11.75h1.79l3.59,11.75,3.38-11.75h1.64l-3.98,13.05h-2.11l-3.43-11.39-3.51,11.39h-2.11l-3.87-13.05Z"/>
    <path class="cls-1" d="M375.87,222.79l8.22-10.53h-8.22v-1.27h9.98v1.3l-8.17,10.48h8.19v1.27h-10.01v-1.25Z"/>
    <path class="cls-1" d="M389.36,210.99h1.51v2.08h.05c.81-1.46,2.31-2.42,4.45-2.42s3.61.94,4.32,2.86c.83-1.74,2.44-2.86,4.71-2.86,3.17,0,4.86,2.03,4.86,5.59v7.8h-1.59v-7.49c0-2.94-1.17-4.6-3.46-4.6-2.42,0-4.06,1.61-4.06,4.37v7.72h-1.56v-7.51c0-2.96-1.3-4.58-3.59-4.58-2.42,0-4.06,1.72-4.06,4.6v7.49h-1.59v-13.05Z"/>
    <path class="cls-1" d="M412.55,217.51c0-3.87,2.91-6.89,6.73-6.89s6.76,3.02,6.76,6.89-2.96,6.89-6.76,6.89-6.73-2.99-6.73-6.89ZM419.31,223.05c2.94,0,5.15-2.42,5.15-5.56s-2.21-5.51-5.15-5.51-5.15,2.42-5.15,5.51,2.16,5.56,5.15,5.56Z"/>
    <path class="cls-1" d="M428.54,217.54c0-3.87,2.89-6.92,6.73-6.92,2.47,0,4.65,1.27,5.75,3.25l-1.27.78c-.83-1.64-2.5-2.68-4.47-2.68-2.99,0-5.12,2.44-5.12,5.56s2.13,5.51,5.12,5.51c1.98,0,3.64-1.01,4.45-2.65l1.3.78c-1.12,1.98-3.25,3.22-5.75,3.22-3.82,0-6.73-2.96-6.73-6.86Z"/>
    <path class="cls-1" d="M444.56,210.99h1.51v2.08h.05c.81-1.4,2.44-2.42,4.58-2.42,3.2,0,5.07,1.92,5.07,5.56v7.83h-1.56v-7.67c0-2.94-1.4-4.42-3.82-4.42s-4.24,1.64-4.24,4.52v7.57h-1.59v-13.05Z"/>
    <path class="cls-1" d="M460.91,206.78c.6,0,1.12.52,1.12,1.09s-.52,1.09-1.12,1.09-1.12-.49-1.12-1.09.52-1.09,1.12-1.09ZM460.13,210.99h1.56v13.05h-1.56v-13.05Z"/>
    <path class="cls-1" d="M465.23,217.51c0-3.85,2.81-6.89,6.47-6.89,2.37,0,4.47,1.3,5.33,3.17h.03v-2.81h1.56v13.03l.05.03c-.96.6-1.98,1.46-1.98,2.52,0,.88.57,1.33,1.51,1.33.44,0,1.01-.13,1.43-.29v.99c-.34.13-.96.34-1.77.34-1.48,0-2.52-.81-2.52-2.13,0-1.22,1.07-2.21,2.11-2.76h-.34v-2.86h-.03c-.88,2-3.07,3.22-5.36,3.22-3.61,0-6.5-2.99-6.5-6.89ZM471.99,223.05c2.89,0,5.15-2.42,5.15-5.54s-2.21-5.54-5.15-5.54-5.17,2.42-5.17,5.54,2.24,5.54,5.17,5.54Z"/>
    <path class="cls-1" d="M489.28,210.99h1.51v2.08h.05c.81-1.46,2.31-2.42,4.45-2.42s3.61.94,4.32,2.86c.83-1.74,2.44-2.86,4.71-2.86,3.17,0,4.86,2.03,4.86,5.59v7.8h-1.59v-7.49c0-2.94-1.17-4.6-3.46-4.6-2.42,0-4.06,1.61-4.06,4.37v7.72h-1.56v-7.51c0-2.96-1.3-4.58-3.59-4.58-2.42,0-4.06,1.72-4.06,4.6v7.49h-1.59v-13.05Z"/>
    <path class="cls-1" d="M512.47,217.51c0-3.85,2.81-6.89,6.47-6.89,2.37,0,4.47,1.3,5.33,3.17h.03v-2.81h1.56v13.05h-1.51v-2.86h-.03c-.88,2-3.07,3.22-5.36,3.22-3.61,0-6.5-2.99-6.5-6.89ZM519.23,223.05c2.89,0,5.15-2.42,5.15-5.54s-2.21-5.54-5.15-5.54-5.17,2.42-5.17,5.54,2.24,5.54,5.17,5.54Z"/>
    <path class="cls-1" d="M530.46,210.99h1.51v2.5h.05c.65-1.82,1.9-2.86,3.69-2.86.29,0,.7.03,1.07.13v1.48c-.34-.1-.75-.18-1.22-.18-2.39,0-3.54,2.13-3.54,4.65v7.33h-1.56v-13.05Z"/>
    <path class="cls-1" d="M540.13,204.54h1.56v13.68l7.28-7.07h2.03l-5.82,5.62,6.14,7.28h-1.98l-5.2-6.27-2.44,2.34v3.93h-1.56v-19.5Z"/>
    <path class="cls-1" d="M552.38,217.54c0-3.85,2.83-6.92,6.63-6.92,3.38,0,6.47,2.5,6.47,7.25v.26h-11.52c.26,2.99,2.44,4.91,5.07,4.91,1.85,0,3.48-.88,4.37-2.42l1.2.75c-.65,1.07-1.72,2.11-3.28,2.65-.96.6-1.98,1.46-1.98,2.52,0,.88.57,1.33,1.51,1.33.44,0,1.01-.13,1.43-.29v.99c-.34.13-.96.34-1.77.34-1.48,0-2.52-.81-2.52-2.13,0-.99.7-1.82,1.53-2.39h-.44c-3.85,0-6.71-2.96-6.71-6.86ZM563.82,216.92c-.18-2.6-1.85-4.94-4.86-4.94-2.57,0-4.76,1.82-4.99,4.94h9.85Z"/>
    <path class="cls-1" d="M280.96,237.98c.6,0,1.12.52,1.12,1.09s-.52,1.09-1.12,1.09-1.12-.49-1.12-1.09.52-1.09,1.12-1.09ZM280.18,242.19h1.56v13.05h-1.56v-13.05Z"/>
    <path class="cls-1" d="M291.02,253.99l8.22-10.53h-8.22v-1.27h9.98v1.3l-8.16,10.48h8.19v1.27h-10.01v-1.25Z"/>
    <path class="cls-1" d="M302.61,242.19h1.74l3.2,11.75,3.67-11.75h1.79l3.59,11.75,3.38-11.75h1.64l-3.98,13.05h-2.11l-3.43-11.39-3.51,11.39h-2.11l-3.87-13.05Z"/>
    <path class="cls-1" d="M325.1,237.98c.6,0,1.12.52,1.12,1.09s-.52,1.09-1.12,1.09-1.12-.49-1.12-1.09.52-1.09,1.12-1.09ZM324.32,242.19h1.56v13.05h-1.56v-13.05Z"/>
    <path class="cls-1" d="M329.42,248.74c0-3.85,2.83-6.92,6.63-6.92,3.38,0,6.47,2.5,6.47,7.25v.26h-11.52c.26,2.99,2.44,4.91,5.07,4.91,1.85,0,3.48-.88,4.37-2.42l1.2.75c-.65,1.07-1.72,2.11-3.28,2.65-.96.6-1.98,1.46-1.98,2.52,0,.88.57,1.33,1.51,1.33.44,0,1.01-.13,1.43-.29v.99c-.34.13-.96.34-1.77.34-1.48,0-2.52-.81-2.52-2.13,0-.99.7-1.82,1.53-2.39h-.44c-3.85,0-6.71-2.96-6.71-6.86ZM340.86,248.12c-.18-2.6-1.85-4.94-4.86-4.94-2.57,0-4.76,1.82-4.99,4.94h9.85Z"/>
    <path class="cls-1" d="M346.14,235.74h1.56v13.68l7.28-7.07h2.03l-5.82,5.62,6.14,7.28h-1.98l-5.2-6.27-2.44,2.34v3.93h-1.56v-19.5Z"/>
    <path class="cls-1" d="M358.25,253.24l.96-.94c.88,1.14,2.13,1.98,3.87,1.98,1.9,0,3.2-.99,3.2-2.47,0-1.77-1.92-2.31-3.54-2.89-2.21-.78-3.67-1.74-3.67-3.61,0-2.03,1.72-3.48,4.26-3.48,1.87,0,3.25.81,4.06,1.79l-.94.99c-.7-.86-1.74-1.46-3.09-1.46-1.53,0-2.7.81-2.7,2.05,0,1.51,1.72,2.03,2.99,2.5,2,.7,4.21,1.56,4.21,4.03,0,2.29-1.95,3.87-4.76,3.87-2.29,0-3.95-1.07-4.86-2.37Z"/>
    <path class="cls-1" d="M370.01,253.99l8.22-10.53h-8.22v-1.27h9.98v1.3l-8.17,10.48h8.19v1.27h-10.01v-1.25Z"/>
    <path class="cls-1" d="M382.17,248.71c0-3.85,2.81-6.89,6.47-6.89,2.37,0,4.47,1.3,5.33,3.17h.03v-2.81h1.56v13.03l.05.03c-.96.6-1.98,1.46-1.98,2.52,0,.88.57,1.33,1.51,1.33.44,0,1.01-.13,1.43-.29v.99c-.34.13-.96.34-1.77.34-1.48,0-2.52-.81-2.52-2.13,0-1.22,1.07-2.21,2.11-2.76h-.34v-2.86h-.03c-.88,2-3.07,3.22-5.36,3.22-3.61,0-6.5-2.99-6.5-6.89ZM388.93,254.25c2.89,0,5.15-2.42,5.15-5.54s-2.21-5.54-5.15-5.54-5.17,2.42-5.17,5.54,2.24,5.54,5.17,5.54Z"/>
    <path class="cls-1" d="M404.84,253.99l8.22-10.53h-8.22v-1.27h9.98v1.3l-8.16,10.48h8.19v1.27h-10.01v-1.25Z"/>
    <path class="cls-1" d="M417.01,248.71c0-3.85,2.81-6.89,6.47-6.89,2.37,0,4.47,1.3,5.33,3.17h.03v-2.81h1.56v13.05h-1.51v-2.86h-.03c-.88,2-3.07,3.22-5.36,3.22-3.61,0-6.5-2.99-6.5-6.89ZM423.77,254.25c2.89,0,5.15-2.42,5.15-5.54s-2.21-5.54-5.15-5.54-5.17,2.42-5.17,5.54,2.24,5.54,5.17,5.54Z"/>
    <path class="cls-1" d="M433.57,253.24l.96-.94c.88,1.14,2.13,1.98,3.87,1.98,1.9,0,3.2-.99,3.2-2.47,0-1.77-1.92-2.31-3.54-2.89-2.21-.78-3.67-1.74-3.67-3.61,0-2.03,1.72-3.48,4.26-3.48,1.87,0,3.25.81,4.06,1.79l-.94.99c-.7-.86-1.74-1.46-3.09-1.46-1.53,0-2.7.81-2.7,2.05,0,1.51,1.72,2.03,2.99,2.5,2,.7,4.21,1.56,4.21,4.03,0,2.29-1.95,3.87-4.76,3.87-2.29,0-3.95-1.07-4.86-2.37Z"/>
    <path class="cls-1" d="M447.48,237.98c.6,0,1.12.52,1.12,1.09s-.52,1.09-1.12,1.09-1.12-.49-1.12-1.09.52-1.09,1.12-1.09ZM446.7,242.19h1.56v13.05h-1.56v-13.05Z"/>
    <path class="cls-1" d="M451.8,248.74c0-3.85,2.83-6.92,6.63-6.92,3.38,0,6.47,2.5,6.47,7.25v.26h-11.52c.26,2.99,2.44,4.91,5.07,4.91,1.85,0,3.48-.88,4.37-2.42l1.2.75c-.65,1.07-1.72,2.11-3.28,2.65-.96.6-1.98,1.46-1.98,2.52,0,.88.57,1.33,1.51,1.33.44,0,1.01-.13,1.43-.29v.99c-.34.13-.96.34-1.77.34-1.48,0-2.52-.81-2.52-2.13,0-.99.7-1.82,1.53-2.39h-.44c-3.85,0-6.71-2.96-6.71-6.86ZM463.24,248.12c-.18-2.6-1.85-4.94-4.86-4.94-2.57,0-4.76,1.82-4.99,4.94h9.85Z"/>
    <path class="cls-1" d="M468.96,258.26l1.01-.88c.94,1.14,2.52,1.79,4.42,1.79,3.07,0,4.89-1.69,4.89-4.6v-2.21h-.03c-.86,1.95-2.99,3.25-5.33,3.25-3.69,0-6.53-3.04-6.53-6.92s2.83-6.86,6.47-6.86c2.29,0,4.45,1.22,5.33,3.15h.03v-2.78h1.56v12.17c0,3.85-2.24,6.03-6.32,6.03-2.44,0-4.45-.75-5.51-2.13ZM474.16,254.25c2.94,0,5.15-2.42,5.15-5.51s-2.26-5.56-5.15-5.56-5.17,2.39-5.17,5.56,2.21,5.51,5.17,5.51Z"/>
    <path class="cls-1" d="M484.72,254.15c0-.75.6-1.38,1.35-1.38s1.35.62,1.35,1.38-.6,1.33-1.35,1.33-1.35-.6-1.35-1.33Z"/>
  </g>
</svg>