<?xml version="1.0" encoding="UTF-8"?>
<svg id="_9" data-name="9" xmlns="http://www.w3.org/2000/svg" viewBox="0 0 860.77 386.9">
  <defs>
    <style>
      .cls-1 {
        fill: none;
        stroke: #6ad3ee;
        stroke-miterlimit: 10;
        stroke-width: 4px;
      }

      .cls-2 {
        fill: #e7e8f2;
      }
    </style>
  </defs>
  <rect class="cls-1" x="189.47" y="114.93" width="450.69" height="147.87" rx="32.03" ry="32.03"/>
  <g>
    <path class="cls-2" d="M159.3,217.7c1.63.15,3.38-.17,5.05-.22,29.5-.7,56.76,19.19,64.97,47.57.46,1.6.69,3.36,1.32,4.87.29,2.57.93,5.13,1.19,7.7,4.81,48.9-44.41,85.98-90.27,68.38l-25.43,12.73c-3.35,1.06-6.8-1.45-6.8-4.98l4.44-28.1c-30.64-38.41-10.18-96.55,37.86-106.75l7.69-1.19h0ZM121.21,344.61c5.96-2.68,11.6-6.24,17.59-8.83.65-.28,1.33-.69,2.04-.78,2.04-.27,6.82,2.1,9.14,2.76,42.89,12.33,82.1-27.87,69.21-70.36-7.05-23.22-29.53-39.74-53.79-39.55-44.48.36-71.12,50-46.35,87.27,1.34,2,5.03,5.85,5.39,7.88.12.7-.05,1.48-.13,2.17-.66,6.5-2.33,12.95-3.09,19.44h0Z"/>
    <path class="cls-2" d="M137.91,281.72c8.44-2.7,12.05,10.11,3.94,12.43-8.11,2.32-11.73-9.94-3.94-12.43Z"/>
    <path class="cls-2" d="M163.53,277.75c8.44-2.7,12.05,10.11,3.94,12.43-8.11,2.32-11.73-9.94-3.94-12.43Z"/>
    <path class="cls-2" d="M189.16,273.78c8.44-2.7,12.05,10.11,3.94,12.43s-11.73-9.94-3.94-12.43Z"/>
  </g>
  <g>
    <path class="cls-2" d="M739.46,49.35l.46.6c16.37,7.18,24.86,26.29,20.42,43.52-7.52,20.69-11.77,43.88-19.44,64.34-6.39,17.06-25.82,27.74-43.59,23.6-22.05-5.14-44.36-14.61-66.48-20.08-19.23-8.84-27.25-26.74-21.86-47.31,5.37-20.5,12.97-40.5,18.46-60.97,7.58-19.39,26.16-28.77,46.54-23.8,21.75,5.3,43.83,14.06,65.47,20.11h.02ZM739.49,65.92c-2.88-2.9-6.57-5.17-10.2-6.99-17.35-5-35.33-12.16-52.83-16.34-18.25-4.36-33.37,3.99-39.73,21.32-5.14,14.01-10.74,33.12-14.39,47.66-4.51,17.98,1.88,32.54,18.77,40.36,30.47,5.55,74.32,36.84,91.14-6.32,4.22-16.16,10.8-32.39,14.67-48.56,2.61-10.88.61-23.01-7.44-31.12h0Z"/>
    <path class="cls-2" d="M700.33,72.68c24.02,11.57,25.63,46.39,4.07,61.27-21.12,14.57-49.69,3.54-54.78-21.41-5.99-29.29,23.78-52.84,50.71-39.86ZM695.6,84.12c-20.28-10.54-42.49,9.9-32.75,30.97,9.56,20.7,40.3,16.11,44.44-6.3,1.7-9.18-3.52-20.42-11.68-24.66h0Z"/>
    <path class="cls-2" d="M737.39,74.33c.7.81,1.24,1.36,1.61,2.54,2.64,8.48-7.7,15.46-13.92,9.37-.09-.09-1.36-1.85-1.41-1.96-4.39-9.45,7.34-17.36,13.72-9.94h0Z"/>
  </g>
</svg>